<?xml version="1.0" encoding="UTF-8" standalone="no"?><!DOCTYPE svg PUBLIC "-//W3C//DTD SVG 1.1//EN" "http://www.w3.org/Graphics/SVG/1.1/DTD/svg11.dtd"><svg width="100%" height="100%" viewBox="0 0 2000 2000" version="1.1" xmlns="http://www.w3.org/2000/svg" xmlns:xlink="http://www.w3.org/1999/xlink" xml:space="preserve" xmlns:serif="http://www.serif.com/" style="fill-rule:evenodd;clip-rule:evenodd;stroke-linejoin:round;stroke-miterlimit:2;"><g><rect x="0" y="0" width="2000" height="2000" style="fill:#fff;fill-rule:nonzero;"/><path d="M1130.38,1228.3c0,173.43 -140.587,314.01 -314.011,314.01c-173.423,0 -314.011,-140.58 -314.011,-314.01c0,-173.42 140.588,-314.007 314.011,-314.007c173.424,0 314.011,140.587 314.011,314.007Z" style="fill:#155bcd;fill-rule:nonzero;"/><clipPath id="_clip1"><path d="M1130.38,1228.3c0,173.43 -140.587,314.01 -314.011,314.01c-173.423,0 -314.011,-140.58 -314.011,-314.01c0,-173.42 140.588,-314.007 314.011,-314.007c173.424,0 314.011,140.587 314.011,314.007Z" clip-rule="nonzero"/></clipPath><g clip-path="url(#_clip1)"><path d="M929.968,1353.62c0.019,-1.49 -0.303,-3.09 0.103,-4.54c0.702,-2.52 3.141,-4.85 3.285,-7.45c0.025,-0.44 0.137,-1.42 0.013,-1.86c-0.151,-0.54 -0.319,-0.63 -0.644,-1.09c-1.034,-1.46 -2.446,-2.8 -3.565,-4.22c-2.151,-2.72 -4.221,-5.56 -5.198,-8.94c-0.653,-2.25 -0.434,-3.47 1.14,-4.95c1.634,-1.53 -1.036,-4.13 0.093,-6.13c1.489,-2.64 4.479,-4.07 5.875,-6.87c1.191,-2.38 1.341,-4.61 1.303,-7.25c-0.041,-2.88 -0.008,-5.76 0.305,-8.63c0.375,-3.45 1.598,-4.62 4.37,-6.65c1.426,-1.04 1.582,-1.2 1.534,-2.8c-0.054,-1.81 -0.111,-3.5 0.362,-5.28c0.595,-2.24 1.612,-4.65 3.29,-6.19c1.996,-1.84 2.462,-5.33 2.956,-7.92c0.29,-1.52 0.469,-2.5 1.508,-3.56c0.948,-0.97 1.439,-2 1.906,-3.3c1.994,-5.54 2.905,-11.23 4.254,-16.91c0.511,-2.15 1.298,-4.09 2.108,-6.17c0.398,-1.02 1.498,-4.99 2.769,-5.57c0.593,-0.27 1.249,0.04 1.925,-0.27c2.035,-0.94 3.081,-4.5 5.375,-4.99c0.91,-0.19 1.688,0.5 2.486,0.74c1.342,0.41 1.778,0.12 2.942,-0.77c2.093,-1.61 4.152,-3.62 5.775,-5.7c1.597,-2.03 3.799,-3.31 5.687,-5.13c1.49,-1.43 2.959,-2.88 4.457,-4.31c0.472,-0.45 3.07,-3.21 4.302,-3.83c1.136,-0.57 1.046,0.08 1.932,0.62c3.13,1.88 5.293,-5 7.244,-6.37c0.25,-0.18 0.71,-0.14 0.98,-0.31c0.86,-0.58 1.39,-2.29 1.75,-3.18c0.65,-1.6 0.75,-4.06 2.48,-2.13c1.11,1.24 1.56,3.04 2.13,4.58c0.28,0.77 0.89,3.93 1.6,4.45c0.61,0.44 1.22,0.23 2.02,0.34c3.02,0.41 4.65,3.02 7.49,3.72c2.92,0.72 6,-1.3 8.29,-2.85c1.17,-0.8 2.51,-2.21 4.07,-1.97c1.899,0.3 3.86,2.13 5.44,3.12c1.87,-0.75 2.599,-2.88 3.81,-4.31c1.159,-1.37 1.63,-2.53 2.33,-4.28c1.66,-4.09 1.61,-9.23 4.689,-12.56c1.081,-1.16 2.101,-1.64 3.561,-2.37c2.5,-1.22 4.81,-2.73 7.33,-3.89c2.84,-1.3 7.04,-2.09 9.42,-4.27c1.42,-1.3 0.97,-4.18 0.96,-5.82c-0.03,-3.95 -0.3,-8.03 -0.02,-11.96c0.07,-0.98 0.48,-1.84 0.56,-2.84c0.23,-2.79 -0.82,-5.91 -1.29,-8.61c-0.38,-2.21 -0.4,-5 -1.99,-6.81c-1.41,-1.6 -2.73,-0.33 -4.35,0.65c-2.12,1.29 -4.56,2.46 -6.55,3.94c-1.09,0.81 -2.28,2.6 -3.56,3.13c-1.05,0.43 -2.72,0.05 -3.83,0.07c-1.591,0.04 -3.13,0.04 -4.68,-0.48c-3.83,-1.29 -7.36,-5.9 -7.301,-9.94c0.01,-0.68 -0.059,-1.36 -0.039,-2.04c0.039,-1.74 0.82,-3.17 1.029,-4.82c0.27,-2.07 0.201,-5.02 -0.11,-7c-0.38,-2.4 -1.079,-5.1 -1.849,-7.4c-0.47,-1.4 -1.2,-2.67 -1.021,-4.21c0.421,-3.31 3.811,-2.8 6.12,-2.15c1.51,0.42 5.851,1.83 6.771,-0.14c0.63,-1.35 0.589,-3.32 0.599,-4.78c0,-2.67 0.031,-5.2 -1.039,-7.68c-1.55,-0.18 -2.11,1.96 -3.52,2.32c-2.09,0.53 -5.36,0 -7.37,0c-2.11,0.01 -4.23,0.07 -6.34,0.06c-1.111,-0.01 -2.41,0.13 -3.351,-0.6c-1.319,-1.01 -2.169,-3.1 -2.979,-4.5c-0.32,-0.56 -0.99,-2.43 -1.68,-2.68c-0.61,2.68 -0.05,5.92 -0.05,8.66c0,1.54 -0.29,2.85 -0.51,4.33c-0.13,0.92 -0.16,1.79 -0.34,2.73c-0.19,0.99 -0.18,1.88 0,2.89c0.27,1.49 0.39,2.73 0.36,4.25c-0.03,1.4 -0.26,3.32 0.39,4.58c0.39,0.78 1.02,1.26 1.88,1.43c0.78,0.49 1.39,1.14 1.85,1.94c0.52,0.69 1.24,1.42 1.54,2.23c0.6,1.59 0.169,3.51 0.77,5.14c0.389,1.04 1.18,1.69 1.759,2.58c0.88,1.36 0.431,3.61 0.431,5.22c0,2.61 0.01,5.23 -0.01,7.85c-0.01,1.62 -0.13,3.38 0.36,4.96c0.32,1.03 0.63,1.6 0.62,2.73c0,0.87 -0.24,1.81 0.13,2.63c0.62,1.39 2.37,2.57 3.589,3.39c1.01,0.68 4.051,2.82 2.911,4.31c-0.781,1.03 -5.42,0.41 -5.98,0.37c-3.171,-0.22 -4.541,-0.55 -6.78,-2.83c-2.53,-2.57 -4.45,-5.63 -6.76,-8.37c-1,-1.29 -2.14,-2.45 -3.41,-3.48c-0.38,-0.35 -0.77,-0.68 -1.17,-1.01c-0.87,-0.19 -1.21,0.64 -1.82,0.86c-0.58,0.21 -1.31,0.08 -1.93,0.08c-3.62,-0.02 -7.26,-0.27 -10.787,0.71c-2.508,0.7 -4.781,2.04 -6.954,3.46c2.217,2.99 7.229,5.57 11.101,5.9c3.63,0.31 7.72,0.97 10.9,2.91c1.72,1.05 2.83,2.63 3.52,4.49c0.71,1.92 0.32,3.66 0.6,5.62c0.34,2.47 1.97,4.68 2.08,7.19c-3.15,-1.23 -6.23,-2.76 -8.85,-4.94c-2.74,-2.27 -4.95,-5.96 -7.21,-8.69c-0.48,-0.58 -2.2,-3.1 -3.492,-2.93c-0.945,0.12 -1.771,1.61 -2.298,2.17c-2.341,2.51 -4.221,2.91 -7.282,1.41c-1.617,-0.79 -3.166,-1.67 -4.648,-2.69c-0.874,-0.61 -2.227,-1.09 -2.389,-2.29c-2.902,2.96 -4.565,7.46 -6.067,11.25c-0.796,2 -1.801,3.94 -2.578,5.95c-0.331,0.85 -0.38,1.13 -0.165,2.12c0.245,1.13 0.832,2.08 1.234,3.13c0.517,1.36 0.661,3.1 0.547,4.56c-0.181,2.3 -1.415,3.01 -2.463,4.85c-0.638,1.12 -0.544,2.05 -0.519,3.28c0.056,2.75 0.008,5.5 0.008,8.24c0,2.57 0.384,5.43 0.063,7.96c-0.378,2.99 -4.418,4.55 -6.738,5.76c-1.425,0.75 -3.242,0.7 -4.839,0.92c-3.399,0.49 -5.955,2.58 -8.849,4.25c-0.928,0.54 -1.514,1.67 -2.503,1.95c-3.652,1.03 -7.628,-3.41 -9.519,-5.82c-2.316,-2.95 -4.55,-6.57 -5.827,-10.14c-0.691,-1.94 -0.571,-3.73 -0.537,-5.72c0.038,-2.26 0.012,-4.53 0.007,-6.79c-0.004,-1.64 -0.678,-3.54 1.277,-3.98c2.544,-0.58 5.772,-0.2 8.004,-1.91c2.361,-1.81 4.369,-3.2 7.187,-4.55c1.477,-0.67 2.956,-1.35 4.433,-2.02c1.482,-0.04 2.52,-0.61 3.116,-1.71c-1.394,-0.62 -2.698,-1.27 -3.988,-2.07c-1.746,-1.08 -2.586,-2.75 -3.778,-4.4c-1.947,-2.69 -2.515,-6.59 -3.146,-9.81c-0.322,-1.65 -0.18,-3.28 -0.188,-4.94c-0.008,-1.66 -0.35,-2.5 -1.058,-3.94c-1.359,-2.76 -2.128,-6.4 -2.274,-9.48c-0.162,-3.4 -0.221,-7 0.048,-10.4c0.147,-1.87 0.542,-3.63 1.509,-5.22c1.017,-1.68 2.49,-2.82 3.699,-4.34c0.334,-0.41 0.492,-0.89 0.775,-1.31c0.576,-0.86 1.308,-1.21 2.312,-1.67c1.631,-0.75 3.592,-1.19 4.794,-2.61c0.312,-0.36 0.539,-0.81 0.864,-1.17c0.765,-0.87 2.199,-1.35 2.894,-2.19c0.433,-0.52 0.465,-1.35 0.256,-2.12c-0.472,-1.75 -2.437,-2.42 -2.444,-4.42c-0.003,-0.99 0.489,-1.83 1.002,-2.64c0.82,-1.29 1.492,-2.59 2.231,-3.94c0.733,-1.33 1.369,-1.98 2.606,-2.79c0.778,-0.51 1.841,-1.04 2.392,-1.79c-0.79,-0.61 1.631,-4.67 1.516,-5.23c-0.521,-2.52 -1.421,-4.9 -2.419,-7.27c-1.189,-2.82 -2.683,-5.13 -4.932,-7.19c-2.77,-2.55 -6.509,-3.99 -9.45,-6.31c-1.485,-1.18 -2.734,-2.16 -2.912,-4.17c-0.174,-1.98 -0.171,-4.14 0.238,-6.1c0.265,-1.28 0.8,-1.91 0.787,-3.16c-0.009,-0.96 -0.349,-1.91 -0.48,-2.85c-0.153,-1.11 -0.05,-1.92 -1.237,-2.48c-1.249,-0.6 -2.36,0.18 -3.537,0.61c-3.075,1.12 -5.621,1.96 -8.997,1.61c-2.814,-0.3 -4.934,-2.04 -6.976,-3.81c-0.781,-0.68 -1.727,-1.93 -2.813,-1.99c-0.544,0.6 -0.476,1.51 -0.498,2.27c-0.112,4.05 1.913,7.69 3.896,11.07c2.119,3.61 5.844,6.56 7.539,10.43c0.548,1.25 0.627,2.88 0.637,4.23c0.022,3.04 0.207,4.88 2.521,7.27c1.158,1.29 2.47,2.42 3.935,3.38c1,0.47 1.785,1.15 2.355,2.04c0.344,0.71 0.093,0.98 0.239,1.68c0.12,0.57 0.433,0.89 0.705,1.44c0.779,1.56 0.53,4 -0.773,5.25c-1.481,1.42 -4.476,1.41 -6.261,1.23c-4.103,-0.42 -8.372,-1.79 -12.111,-3.46c-3.035,-1.36 -5.65,-3.04 -7.534,-5.9c-1.459,-2.22 -2.002,-4.04 -2.344,-6.64c-0.315,-2.41 -1.311,-4.75 -1.378,-7.18c-0.021,-0.77 0.173,-1.54 0.049,-2.31c-0.373,-2.32 -3.034,-5.94 -3.958,-7.53c-2.188,-3.78 -4.599,-7.56 -6.577,-11.46c-2.232,-4.4 -1.86,-8.76 -1.881,-13.58c-0.011,-2.37 -0.513,-5.349 0.193,-7.66c0.765,-2.5 2.927,-4.35 4.132,-6.6c0.319,-0.6 0.205,-1.41 0.49,-1.9c0.49,-0.85 2.171,-0.41 2.999,-0.419c1.508,-0.02 3.279,-0.051 4.718,-0.621c0.564,-0.22 1.062,-0.57 1.66,-0.73c0.9,-0.25 1.964,-0.35 2.853,0.02c1.55,1.24 3.037,2.54 4.461,3.92c1.328,0.95 2.657,1.911 3.985,2.86c1.53,0.98 3.357,2.411 5.162,1.5c1.248,-0.63 1.908,-1.829 3.054,-2.57c4.053,-2.629 7.427,4.491 8.944,7.2c-0.446,-4.03 -1.292,-8.04 -2.099,-12.01c-0.817,-4.01 -1.335,-8.53 -3.079,-12.24c-0.544,-1.16 -1.243,-2.56 -2.146,-3.49c-1.734,-1.78 -4.459,-2.81 -6.407,-4.42c-1.374,-1.14 -2.544,-2.41 -3.672,-3.79c-1.199,-1.464 -2.774,-2.564 -4.327,-3.646c-3.942,-2.747 -9.066,-4.523 -13.475,-6.479c-1.808,-0.802 -5.968,-2.251 -7.921,-3.836c-2.025,-1.644 -2.765,-4.402 -4.7,-6.069c-1.215,-1.047 -2.617,-0.442 -4.202,-0.545c-1.973,-0.13 -3.632,-1.244 -5.189,-2.383c-2.319,-1.695 -4.633,-3.165 -7.139,-4.593c-2.135,-1.217 -4.259,-2.483 -6.413,-3.657c-0.994,-0.542 -2.111,-0.246 -3.315,-0.673c-0.47,-0.166 -0.847,-0.488 -1.307,-0.699c-0.873,-0.401 -1.913,-0.562 -2.819,-0.895c-1.454,-0.535 -2.827,-1.32 -4.29,-1.856c-1.812,-0.663 -3.906,-1.093 -5.797,-1.538c-4.25,-1.001 -8.641,-1.367 -12.845,-2.554c-1.346,-0.381 -2.089,-1.117 -3.324,-1.731c-1.396,-0.694 -2.047,-1.513 -2.748,-2.867c-0.563,-1.088 -1.328,-2.047 -1.888,-3.119c-1.063,-2.033 -1.629,-4.643 -4.111,-5.094c-4.197,-0.764 -8.553,-2.187 -12.818,-2.356c-2.669,-0.106 -6.477,0.904 -8.641,-1.024c-1.918,-1.709 -3.099,-6.14 -6.293,-5.714c-1.968,0.262 -3.723,2.056 -5.533,2.863c-1.774,0.791 -3.406,1.4 -5.285,1.769c-2.566,0.505 -5.09,1.346 -7.554,2.208c-2.342,0.819 -5.54,2.98 -8.191,2.937c-3.537,-0.056 -6.343,-1.929 -9.494,-3.185c-2.547,-1.015 -5.751,0.115 -8.141,1.1c-1.302,0.537 -2.921,1.713 -4.307,1.94c-0.373,0.062 -0.734,-0.071 -1.089,-0.03c-1.708,0.194 -3.522,1.24 -5.188,1.695c-4.805,1.311 -9.144,4.38 -14.009,5.423c-1.233,0.265 -2.518,0.087 -3.775,0.085c-2.359,-0.005 -4.72,-0.025 -7.079,0.008c-2,0.028 -3.839,0.182 -5.308,-1.426c-1.037,-1.137 -0.916,-2.434 -0.899,-3.874c0.037,-3.106 0.336,-6.472 -0.145,-9.56c5.033,-2.185 11.028,-1.759 16.058,-4.172c3.087,-1.481 6.348,-2.431 9.432,-3.899c2.818,-1.341 5.306,-2.877 7.868,-4.543c1.002,-0.651 4.174,-2.64 4.105,-4.103c-0.166,-3.507 6.747,-5.005 9.591,-6.552c8.652,-4.707 18.163,-9.176 27.908,-11.015c4.147,-0.782 9.936,-1.519 14.038,0.387c2.332,1.082 4.372,2.53 6.787,3.491c6.654,2.649 13.611,4.491 20.802,4.122c4.795,-0.246 9.862,-0.429 14.451,-1.917c1.998,-0.648 3.991,-1.438 5.978,-2.123c4.546,-1.568 9.26,-2.406 13.974,-3.323c4.584,-0.891 8.956,-0.757 13.593,-0.759c4.564,-0.002 9.162,-0.318 13.714,0.11c6.13,0.576 12.032,2.512 18.15,3.212c7.75,0.886 15.553,0.38 23.298,1.44c5.9,0.807 11.609,2.379 17.437,3.552c2.299,0.464 4.607,0.815 6.891,1.35c1.976,0.463 4.292,0.624 6.083,1.668c2.056,1.198 3.998,2.516 5.892,3.966c0.084,1.224 3.466,1.613 4.233,2.484c2.793,3.17 6.038,5.826 9.363,8.425c9.661,7.551 20.347,13.808 29.957,21.442c11.68,9.282 22.26,19.935 32.2,31.045c17.45,19.527 35.08,40.007 48.11,62.787c10.6,18.51 16.44,39.3 25.81,58.44c4.21,8.61 8.57,17.07 13.77,25.12c4.76,7.36 9.98,14.39 14.57,21.86c7.06,11.51 12.33,24.16 15.7,37.23c4.3,16.71 9.75,33.13 13.33,50.02c2.35,11.11 6.14,22.1 5.98,33.56c-0.16,12.03 -2.38,24.28 -5.11,35.96c-1.64,6.98 -3.65,13.87 -5.24,20.86c-1.86,8.18 -3.53,16.27 -6.37,24.19c-2.81,7.88 -6.39,15.57 -9.72,23.24c-2.04,4.68 -3.87,9.75 -6.52,14.14c-1.78,2.96 -4.13,5.51 -6.23,8.23c-3.08,3.98 -5.81,8.24 -9.03,12.1c-12.44,14.87 -28.48,26.65 -42.94,39.42c-5.73,5.06 -11.6,9.83 -17.14,15.13c-2.69,2.58 -5.56,4.94 -8.48,7.27c-1.19,0.95 -3.21,3.19 -4.89,3.32c-0.74,-0.05 -1.97,-0.5 -2.13,-0.91c-0.69,-1.73 -1.49,-3.43 -2.36,-5.07c-1.19,-2.28 -2.8,-4.55 -4.39,-6.58c-0.79,-1.01 -1.47,-1.85 -2.71,-2.31c-2.01,-0.75 -4.34,-0.43 -6.44,-0.43c-1.31,0 -3.651,-0.43 -4.96,0.13c-0.6,-0.87 -0.34,-2.97 -0.331,-3.91c0.031,-1.43 0.121,-2.61 0.481,-4.05c0.539,-2.19 1.25,-4.3 2.43,-6.21c0.33,-0.53 0.75,-0.93 1.099,-1.45c0.37,-0.57 0.581,-1.24 0.841,-1.87c0.09,-0.21 0.29,-0.26 0.32,-0.49c0.16,-0.97 0.06,-1.71 0.35,-2.76c0.7,-2.47 0.93,-4.79 0.91,-7.36c-0.01,-0.94 0.12,-1.94 -0.06,-2.87c-0.21,-1.05 -0.84,-1.86 -0.92,-2.95c-0.16,-2.23 0.07,-3.95 1.3,-5.86c1.98,-3.07 4.53,-5.73 6.4,-8.86c0.36,-0.61 0.62,-1.06 0.84,-1.69c0.47,-1.37 1.28,-2.47 1.88,-3.78c0.83,-1.86 1.39,-4 1.66,-6.01c0.26,-1.95 -0.11,-3.8 -0.5,-5.7c-0.73,-3.67 -0.96,-7.55 -0.65,-11.29c0.15,-1.76 0.26,-3.48 0.25,-5.25c0,-0.46 0.14,-1.15 0.06,-1.58c-0.16,-0.81 -0.73,-1.24 -1.32,-1.76c-1.08,-0.92 -1.84,-1.73 -2.49,-3.02c-0.76,-1.5 -1.28,-3.21 -1.89,-4.79c-0.73,-1.91 -1.48,-3.81 -2.23,-5.71c-0.45,-1.07 -0.88,-2.14 -1.3,-3.22c-0.58,-2.37 0.36,-4.99 -0.1,-7.38c-0.47,-2.36 -2.25,-2.34 -4.2,-2.23c-3.86,0.23 -7.6,1.32 -11.37,1.89c-4.11,0.62 -7.95,2.92 -11.71,4.51c-3.45,1.46 -7.01,2.72 -10.44,4.23c0.44,-0.2 -4.78,1.96 -5.04,2.78c-0.33,1.09 0.29,2.38 -0.09,3.56c-0.98,3.07 -3.41,5.62 -6.07,7.3c-1.42,0.89 -2.891,1.65 -4.264,2.62c-0.704,0.49 -1.264,0.88 -2.076,1.25c-1.891,0.85 -3.754,1.87 -5.857,1.85c-1.355,-0.01 -2.647,-0.01 -3.964,-0.37c-0.643,-0.18 -1.239,-0.51 -1.882,-0.64c-0.176,-0.04 -0.53,-0.07 -0.712,-0.06c-1.068,0.1 -2.031,0.5 -2.889,1.2c-1.672,1.02 -3.406,1.92 -5.203,2.69c-1.615,0.63 -2.594,0.35 -3.88,-0.95c-1.063,-1.08 -1.718,-2.42 -2.695,-3.57c-0.943,-1.11 -2.141,-2.1 -3.284,-3.02c-1.075,-0.85 -2.584,-2.31 -4.042,-2.32c-1.986,-0.02 -4.282,0.35 -6.196,-0.29c-0.673,-0.23 -1.365,-0.44 -2.034,-0.68c-2.499,-0.88 -3.798,-2.79 -5.752,-4.44c-1.381,-1.16 -3.167,-1.9 -4.146,-3.47c-0.577,-0.92 -1.349,-1.03 -2.178,-1.7c-0.511,-0.41 -0.921,-0.87 -1.478,-1.21c-0.366,-0.22 -0.755,-0.39 -1.072,-0.69c-0.913,-0.85 -1.387,-2.13 -1.723,-3.31c-0.329,-1.15 -0.575,-3.4 -1.871,-3.94c-0.533,-0.23 -1.567,-0.03 -2.146,-0.04c-0.262,0 -0.639,-0.06 -0.902,-0.02c-0.467,0.09 -1.173,-0.19 -1.666,-0.3Z" style="fill:#84a9ff;fill-rule:nonzero;"/><path d="M606.631,1388.06c-0.829,4.66 -3.386,8.93 -4.42,13.58c-0.578,2.6 -1.566,6.36 -0.042,8.88c2.044,3.38 7.694,6.37 10.589,7.85c3.826,1.96 7.685,3.4 11.657,5.01c2.684,1.1 2.128,0.4 2.479,2.25c0.335,1.77 -0.313,3.89 0.089,5.79c0.934,4.43 3.458,8.62 6.394,12.01c1.691,1.96 3.908,3.49 5.592,5.48c2.443,2.9 3.862,6.8 5.977,9.96c2.133,3.18 5.187,6.3 6.689,9.9c1.38,3.3 1.208,6.99 2.661,10.33c2.345,5.4 6.913,9.37 9.526,14.65c1.216,2.45 2.958,5.41 3.116,8.18c0.124,2.16 -0.392,2.88 0.949,4.79c2.643,3.75 7.821,6.09 11.568,8.59c3.968,2.66 6.263,6.85 10.53,9.16c10.261,5.57 22.11,4.68 33.242,5.12c3.458,0.14 6.098,1.97 9.557,2.18c4.67,0.28 10.324,-0.2 14.571,-1.72c3.993,-1.26 7.329,-3.42 10.008,-6.47c1.818,-1.66 3.507,-3.44 5.068,-5.35c1.555,-1.1 2.101,-0.96 3.965,-1.03c2.919,-0.11 5.074,-1.27 7.922,-2.19c2.503,-0.8 4.888,-1.3 7.428,-1.57c1.949,-0.2 2.813,-0.42 4.978,-1.15c4.268,-1.43 9.053,-2.45 12.941,-4.74c3.948,-2.32 7.466,-7.05 11.814,-8.44c1.36,-0.43 3.275,0.55 4.506,-0.17c2.43,-1.4 0.979,-8.05 1.057,-10.39c0.053,-1.59 -0.255,-2.58 0.911,-3.72c0.649,-0.64 2.074,-0.96 2.873,-1.58c1.737,-1.34 3.172,-3.14 4.84,-4.57c1.388,-1.2 3.642,-2.32 4.813,-3.64c1.564,-1.77 0.725,-3.83 1.16,-6.11c0.279,-1.46 0.89,-2.92 1.002,-4.43c0.319,-4.31 -2.407,-6.62 -5.433,-9.13c-8.748,-7.26 -18.076,-13.32 -29.583,-13.72c-1.391,-0.04 -3.071,0.26 -4.411,-0.11c-0.785,-0.22 -3.352,-2.46 -3.528,-2.57c-3.696,-2.41 -8.261,-2.35 -12.451,-3.43c-6.281,-1.63 -7.366,-8.31 -10.295,-13.42c-4.304,-7.5 -9.999,-14.86 -17.59,-19.21c-2.896,-1.65 -6.006,-2.51 -9.192,-3.45c-5.627,-1.66 -10.685,-4.39 -15.835,-7.15c-3.054,-1.64 -6.09,-3.71 -9.456,-4.62c-1.888,-0.51 -3.643,-0.29 -5.408,-0.74c-1.791,-0.46 -3.285,-2.4 -4.735,-3.53c-3.745,-2.92 -7.506,-5.76 -11.163,-8.79c-1.8,-1.49 -3.631,-3.27 -5.982,-3.79c-1.15,-0.25 -1.787,0.01 -2.847,-0.51c-1.369,-0.66 -1.817,-1.39 -3.442,-1.91c-5.26,-1.67 -10.328,-2.84 -15.062,-5.79c-3.751,-2.35 -7.432,-4.78 -11.249,-7.02c-2.883,-1.69 -6.267,-4.43 -9.643,-4.9c-3.222,-0.44 -3.19,2.11 -5.711,2.9c-1.739,0.55 -4.029,-0.29 -5.829,-0.04c-1.052,2.35 0.002,5.05 -0.999,7.41c-0.485,1.14 -1.222,1.57 -1.992,2.45c-1.919,2.21 -3.79,4.8 -5.918,6.78c-1.714,1.59 -4.223,2.26 -6.282,3.47c-1.502,0.87 -8.958,4.16 -11.974,14.38Z" style="fill:#84a9ff;fill-rule:nonzero;"/><path d="M602.804,1277.09c6.745,-0.5 12.688,3.72 17.841,7.65c2.043,1.56 5.326,3.75 6.55,6.27c0.56,1.15 0.228,2.12 0.645,3.3c0.42,1.19 1.965,2.66 2.676,3.76c0.891,0.75 1.485,1.69 1.783,2.82c0.118,1.57 0.225,3.14 0.324,4.71c0.763,3.92 4.326,7.51 7.307,9.8c1.381,1.07 3.312,2.12 4.54,3.28c0.952,0.89 1.301,2.31 2.263,3.2c1.57,1.46 2.941,1.03 4.864,1.32c4.412,0.65 8.751,1.42 13.226,1.75c1.62,0.12 1.74,0.17 3.094,0.86c2.853,1.45 6.288,2 8.902,3.87c1.87,1.33 3.465,2.75 5.381,4.06c1.635,1.12 2.655,2.79 4.685,3.23c-0.398,-0.65 -1.247,-1.12 -1.606,-1.86c-0.453,-0.95 -0.087,-2.41 -0.323,-3.42c-0.346,-1.46 -1.451,-3.47 -2.499,-4.55c-1.413,-1.45 -3.51,-2.11 -5.271,-3.15c-1.731,-1.02 -3.148,-2.09 -4.685,-3.35c-1.988,-1.61 -4.409,-2.4 -6.348,-4.06c-1.958,-1.68 -3.364,-2.84 -5.789,-3.9c-1.443,-0.64 -2.783,-1.27 -4.156,-2.06c-1.876,-1.08 -5.437,-2.15 -6.861,-3.52c-1.313,-1.27 -1.464,-4.53 -2.142,-6.3c-0.778,-2.03 -1.635,-4.17 -2.86,-5.97c-2.84,-4.18 -5.177,-7.24 -9.586,-9.68c-5.224,-2.9 -10.554,-6.08 -15.533,-9.38c-2.358,-1.55 -2.877,-3.53 -4.39,-5.84c-1.69,-2.58 -3.887,-4.02 -7.153,-3.25c-0.697,1.78 -0.093,4.69 -4.879,10.41Z" style="fill:#84a9ff;fill-rule:nonzero;"/><path d="M610.457,1345.01c-1.237,-4.31 -3.999,-7.83 -6.231,-11.66c-1.669,-2.86 -4.416,-6.35 -4.522,-9.73c-0.141,-4.51 4.111,-6.87 4.94,-10.68c0.777,-3.58 2.712,-9.99 -0.746,-12.67c-3.191,-2.47 -8.339,-3.05 -12.199,-4.14c-2.717,-0.77 -2.917,-1.32 -5.101,-2.75c-2.906,-1.91 -4.46,-3.3 -4.886,-6.94c-0.353,-3.02 0.081,-6.3 0.043,-9.36c-0.048,-3.79 -0.624,-6.08 -4.335,-7.73c-2.875,-1.29 -5.712,-1.6 -7.165,-4.68c-1.308,-2.78 -1.441,-7.39 -1.695,-10.3c-0.342,-3.92 -0.202,-7.83 -0.193,-11.76c0.008,-3.21 0.016,-6.42 0.002,-9.64c-0.004,-0.95 -0.375,-3.58 0.104,-4.7c0.709,-1.66 2.931,-2.29 4.471,-2.86c2.25,-0.83 4.566,-1.42 6.946,-1.75c2.142,-0.2 4.287,-0.24 6.434,-0.11c1.09,-0.2 1.784,-0.8 2.82,-1.04c2.726,-0.61 6.884,0.08 9.609,0.03c4.009,-0.06 8.607,2.69 11.791,5.07c2.4,1.79 3.012,3.69 3.523,6.61c0.93,5.3 0.268,11.22 0.198,16.58c-0.028,2.11 -0.108,3.61 0.907,5.51c1.438,2.71 4.42,5.05 7.626,3.36c0.953,-5.79 0.124,-12.28 0.095,-18.18c-0.007,-1.45 -0.767,-4.4 0.403,-5.44c1.481,-1.31 7.879,-0.1 9.978,-0.09c3.131,0 11.336,1.66 13.2,-1.64c0.68,-1.2 0.372,-2.94 0.719,-4.27c0.606,-2.34 1.401,-4.62 1.985,-6.98c0.563,-2.28 1.064,-6.67 2.917,-8.24c1.349,-1.15 2.013,-0.85 3.777,-0.86c2.77,-0.01 5.056,-1.24 7.607,-2.35c7.955,-3.46 15.394,-8.07 23.638,-10.86c2.703,-0.91 5.219,-0.9 7.503,-2.55c1.914,-1.39 2.879,-2.41 5.318,-2.48c2.646,-0.07 5.35,-0.02 7.998,0.07c3.513,0.1 6.712,-0.93 9.965,-2.3c1.515,-0.63 3.58,-2.71 5.267,-2.58c0.642,-2.27 0.293,-5.28 -0.043,-7.58c-0.257,-1.75 -1.733,-5.71 -0.592,-7.52c1.459,-2.32 6.035,-1.04 8.457,-1.08c4.176,-0.07 8.185,0.39 12.352,0.95c1.73,0.24 6.434,0.02 7.865,1.05c1.554,1.12 0.84,4.35 0.826,5.95c-0.027,3.23 -0.643,7.09 0.152,10.23c5.248,1.53 7.635,-7.5 7.632,-11.42c-0.002,-3.02 -1.486,-3.54 -3.077,-5.66c-0.964,-1.28 -1.158,-1.09 -1.855,-3.38c-1.115,-3.67 -1.945,-8.17 -1.895,-12.04c0.029,-2.24 0.114,-3.93 -0.992,-5.98c-1.802,-3.34 -5.679,-5.18 -7.587,-8.53c-0.998,-1.75 -0.964,-2.51 -0.992,-4.36c-0.098,-6.3 -0.224,-12.26 1.709,-18.36c0.901,-2.85 1.186,-4.01 1.228,-6.85c0.042,-2.78 -0.981,-4.25 -2.215,-6.65c-0.824,-1.6 -1.295,-3.1 -2.635,-4.4c-1.781,-1.73 -3.215,-0.4 -5.114,-1.25c-2.389,-1.07 -4.453,-5.36 -5.518,-7.81c-3.318,0.87 -6.392,7.04 -8.368,9.53c-1.077,1.35 -1.482,3.16 -2.582,4.44c-1.611,1.87 -4.569,2.28 -6.751,3.34c-2.716,1.31 -2.334,1.73 -2.262,4.66c0.117,4.68 -0.389,12.91 -5.729,14.51c-1.429,0.43 -3.713,-0.12 -5.201,-0.07c-3.249,0.09 -4.469,-0.54 -5.675,-4.07c-0.342,-0.99 -0.205,-2.6 -0.594,-3.46c-0.479,-1.05 -0.794,-0.79 -1.348,-1.64c-1.459,-2.23 -1.988,-4.7 -3.635,-6.99c-1.594,-2.21 -2.772,-3.57 -3.727,-6.05c-1.098,-2.85 -2.681,-5.85 -3.66,-8.71c-1.032,-3 -0.459,-8.53 0.794,-11.48c1.365,-3.22 3.049,-5.75 6.02,-7.57c1.843,-1.13 3.412,-3.1 5.452,-3.66c2.073,-0.58 5.593,0.06 7.774,0.06l21.687,0c1.321,0 3.318,0.35 4.567,-0.01c3.164,-0.93 4.484,-5.86 5.862,-8.6c1.484,-2.94 -0.132,-1.42 2.089,-1.85c1.458,-0.28 5.62,1.62 7.106,2.36c3.534,1.77 4.081,4.96 4.789,8.52c0.644,3.24 1.758,6.03 1.682,9.31c-0.062,2.65 -0.661,6.07 0.518,8.49c0.457,0.93 1.047,2.38 2.429,1.86c1.452,-0.55 0.728,-3.36 1.049,-4.37c0.952,-2.99 3.292,-1.78 5.608,-2.89c2.207,-1.05 3.484,-3.7 3.835,-6.1c0.391,-2.7 0.36,-6.86 -0.472,-9.35c-1.186,-3.54 -1.739,-7.09 -2.703,-10.71c-1.619,-6.08 -0.581,-13.12 -0.695,-19.36c-0.078,-4.3 -0.347,-5.059 4.077,-7.309c2.364,-1.211 4.714,-3.601 7.154,-4.541c5.006,-1.93 13.751,-0.31 17.47,3.21c3.752,3.561 7.43,9.581 8.482,14.74c1.709,8.39 -1.641,17.08 -4.423,24.83c-0.82,2.28 -0.989,4.49 -1.617,6.77c-1.022,3.73 -3.079,7.06 -4.025,10.81c-0.843,3.35 -0.317,6.91 -0.319,10.3c-0.002,2.98 -0.579,6.16 0.294,9.07c1.36,4.52 5.088,8.3 6.904,12.69c0.824,2 0.942,3.22 2.527,4.71c1.853,1.74 5.577,3.06 8.143,2.99c2.868,-5.51 1.251,-15.1 1.251,-20.89c0,-3.02 0.027,-6.04 0.003,-9.06c-0.023,-3.06 0.394,-6.41 2.949,-8.43c3.369,-2.66 9.353,-4.32 13.397,-4.8c2.751,-0.33 2.729,-0.64 6.226,-1.8c2.259,-0.6 4.519,-1.2 6.779,-1.8c2.477,-0.22 4.807,-0.89 6.987,-2c0.744,-1.04 -0.218,-5.19 0.03,-6.21c0.886,-3.64 4.16,-7.07 5.841,-10.48c0.825,-1.67 3.733,-6.09 2.669,-8.34c-0.678,-1.43 -2.777,-1.13 -3.759,-1.9c-1.547,-1.23 -3.735,-5.88 -4.543,-7.24c-2.673,-4.509 -3.957,-9.629 -6.372,-14.29c-2.082,-4.02 -2.582,-8.52 -4.585,-12.51c-1.044,-2.08 -2.64,-3.86 -3.713,-5.94c-1.224,-2.36 -1.092,-4.6 -4.268,-4.97c-6.838,-0.81 -14.51,0.01 -21.428,0.04c-2.481,0.01 -5.075,0.33 -7.531,-0.1c-4.034,-0.7 -7.79,-2.43 -11.523,-4.04c-6.256,-2.69 -14.436,-4.28 -20.653,-1.04c-2.888,1.51 -5.88,4.03 -8.306,6.22c-1.138,1.03 -1.332,1.81 -3.112,1.97c-2.139,0.18 -4.146,-1.22 -6.022,-2.03c-2.735,-1.19 -5.653,-1.88 -7.965,-3.87c-2.856,0.79 -5.295,4.85 -7.024,7.09c-1.362,1.77 -1.709,2.12 -3.992,0.91c-2.15,-1.15 -4.484,-6.41 -7.313,-6.29c-2.441,0.1 -3.31,3.54 -5.293,4.03c-0.677,0.17 -3.42,-0.54 -4.047,-0.82c-1.705,-0.75 -3.479,-2.99 -3.973,-4.83c-0.295,-1.1 0.064,-2.7 -0.11,-3.87c-0.254,-1.71 -0.698,-3.2 -0.786,-4.9c-0.107,-2.05 -0.431,-3.638 0.839,-5.329c3.581,-4.771 8.763,-8.294 12.065,-13.337c1.631,-2.49 1.49,-4.731 1.486,-7.522c-0.001,-1.714 0.323,-5.5 -0.931,-6.898c-2.739,-3.056 -11.309,2.865 -13.612,4.186c-2.674,1.533 -3.846,1.541 -6.752,0.144c-2.186,-1.051 -3.868,-2.926 -5.933,-3.985c-2.132,-1.092 -4.545,-0.688 -7.095,-0.669c-6.635,0.05 -12.27,2.9 -18.991,1.554c-1.902,2.66 -2.448,5.658 -3.314,8.807c-1.496,5.439 -2.786,10.922 -4.569,16.279c-1.254,3.765 -3.429,4.86 -5.925,8.09c-1.843,2.39 -23.404,28.041 -24.193,29.69c-2.431,5.07 -7.718,6.57 -10.954,10.61c0.116,-0.409 -0.025,-0.649 -0.425,-0.72c-1.975,3.04 -3.518,6.13 -6.053,8.74c-2.417,2.49 -5.124,4.47 -7.89,6.53c-5.386,4 -10.767,8.71 -15.127,13.81c-5.172,6.05 -8.652,13.73 -11.707,20.99c-1.809,4.29 -4.393,8.24 -6.465,12.34c-4.802,9.52 -11.104,18.34 -15.56,28.04c-2.147,4.68 -3.248,9.81 -5.264,14.4c-2.73,6.22 -8.4,10 -8.378,17.22c0.016,5.52 2.803,9.86 3.854,14.95c0.884,4.28 0.241,9.47 0.219,13.82c-0.036,7.09 0.918,14 0.883,21.07c-0.027,5.67 1.684,9.67 2.77,14.96c0.237,1.16 0.141,2.3 0.712,3.32c0.456,0.81 1.296,1.17 1.795,1.95c2.522,3.9 1.102,8.49 5.281,11.86c1.832,1.48 3.852,1.98 5.075,4.03c1.442,2.42 2.374,5.49 3.535,8.06c2.837,6.29 5.774,11.2 5.801,18.24c0.016,4.55 1.557,6.71 3.801,10.63c2.087,3.64 3.023,6.06 2.855,10.27c-0.125,3.12 0.223,5.82 2.023,8.51c2.117,3.17 5.211,4.29 6.663,8.03c1.025,2.64 1.421,5.32 2.017,8.08c0.726,3.35 2.589,5.53 3.995,8.51c1.556,3.29 1.701,7.05 3.485,10.35c2.002,3.7 15.704,15.59 17.227,2.95Z" style="fill:#84a9ff;fill-rule:nonzero;"/></g><path d="M816.368,758.78l-314.01,97.648l314.01,97.65l314.012,-97.65l-314.012,-97.648Z" style="fill:#050f64;fill-rule:nonzero;"/><path d="M1130.38,826.734l0,29.678l-282.087,-87.698c-20.773,-6.455 -43.069,-6.455 -63.844,0l-171.5,53.309l-60.32,18.771l-50.267,15.618l0,-29.678l50.267,-15.618l60.32,-18.771l171.5,-53.309c20.775,-6.454 43.071,-6.454 63.844,0l282.087,87.698Z" style="fill:#83a8ff;fill-rule:nonzero;"/><path d="M969.544,954.078l-306.351,0l0,-89.991c102.118,-34.464 204.234,-34.464 306.351,0l0,89.991Z" style="fill:#155bcc;fill-rule:nonzero;"/><path d="M612.949,792.345l0,134.44l-30.159,-41.549l-30.161,41.549l0,-115.669l60.32,-18.771Z" style="fill:#ffca32;fill-rule:nonzero;"/><path d="M915.685,1542.31c-1.463,0 -2.649,-1.18 -2.649,-2.64l0,-788.983c0,-1.463 1.186,-2.648 2.649,-2.648c1.462,0 2.648,1.185 2.648,2.648l0,788.983c0,1.46 -1.186,2.64 -2.648,2.64Z" style="fill:#050f64;fill-rule:nonzero;"/><path d="M1045.27,1542.31c-1.47,0 -2.65,-1.18 -2.65,-2.64l0,-788.983c0,-1.463 1.18,-2.648 2.65,-2.648c1.46,0 2.65,1.185 2.65,2.648l0,788.983c0,1.46 -1.19,2.64 -2.65,2.64Z" style="fill:#050f64;fill-rule:nonzero;"/><path d="M1045.27,1467.15l-129.585,0c-1.17,0 -2.12,-0.95 -2.12,-2.12c0,-1.17 0.95,-2.12 2.12,-2.12l129.585,0c1.169,0 2.12,0.95 2.12,2.12c0,1.17 -0.951,2.12 -2.12,2.12Z" style="fill:#050f64;fill-rule:nonzero;"/><path d="M1045.27,1403.18l-129.585,0c-1.17,0 -2.12,-0.95 -2.12,-2.12c0,-1.17 0.95,-2.12 2.12,-2.12l129.585,0c1.169,0 2.12,0.95 2.12,2.12c0,1.17 -0.951,2.12 -2.12,2.12Z" style="fill:#050f64;fill-rule:nonzero;"/><path d="M1045.27,1339.21l-129.585,0c-1.17,0 -2.12,-0.95 -2.12,-2.12c0,-1.17 0.95,-2.12 2.12,-2.12l129.585,0c1.169,0 2.12,0.95 2.12,2.12c0,1.17 -0.951,2.12 -2.12,2.12Z" style="fill:#050f64;fill-rule:nonzero;"/><path d="M1045.27,1275.24l-129.585,0c-1.17,0 -2.12,-0.95 -2.12,-2.12c0,-1.17 0.95,-2.12 2.12,-2.12l129.585,0c1.169,0 2.12,0.95 2.12,2.12c0,1.17 -0.951,2.12 -2.12,2.12Z" style="fill:#050f64;fill-rule:nonzero;"/><path d="M1045.27,1211.27l-129.585,0c-1.17,0 -2.12,-0.95 -2.12,-2.12c0,-1.17 0.95,-2.12 2.12,-2.12l129.585,0c1.169,0 2.12,0.95 2.12,2.12c0,1.17 -0.951,2.12 -2.12,2.12Z" style="fill:#050f64;fill-rule:nonzero;"/><path d="M1045.27,1147.29l-129.585,0c-1.17,0 -2.12,-0.94 -2.12,-2.11c0,-1.17 0.95,-2.12 2.12,-2.12l129.585,0c1.169,0 2.12,0.95 2.12,2.12c0,1.17 -0.951,2.11 -2.12,2.11Z" style="fill:#050f64;fill-rule:nonzero;"/><path d="M1045.27,1083.32l-129.585,0c-1.17,0 -2.12,-0.94 -2.12,-2.11c0,-1.18 0.95,-2.12 2.12,-2.12l129.585,0c1.169,0 2.12,0.94 2.12,2.12c0,1.17 -0.951,2.11 -2.12,2.11Z" style="fill:#050f64;fill-rule:nonzero;"/><path d="M1045.27,1019.35l-129.585,0c-1.17,0 -2.12,-0.95 -2.12,-2.12c0,-1.17 0.95,-2.11 2.12,-2.11l129.585,0c1.169,0 2.12,0.94 2.12,2.11c0,1.17 -0.951,2.12 -2.12,2.12Z" style="fill:#050f64;fill-rule:nonzero;"/><path d="M1045.27,955.381l-129.585,0c-1.17,0 -2.12,-0.948 -2.12,-2.118c0,-1.17 0.95,-2.119 2.12,-2.119l129.585,0c1.169,0 2.12,0.949 2.12,2.119c0,1.17 -0.951,2.118 -2.12,2.118Z" style="fill:#050f64;fill-rule:nonzero;"/><path d="M1045.27,891.41l-129.585,0c-1.17,0 -2.12,-0.949 -2.12,-2.119c0,-1.17 0.95,-2.118 2.12,-2.118l129.585,0c1.169,0 2.12,0.948 2.12,2.118c0,1.17 -0.951,2.119 -2.12,2.119Z" style="fill:#050f64;fill-rule:nonzero;"/><path d="M1045.27,827.439l-129.585,0c-1.17,0 -2.12,-0.949 -2.12,-2.119c0,-1.17 0.95,-2.119 2.12,-2.119l129.585,0c1.169,0 2.12,0.949 2.12,2.119c0,1.17 -0.951,2.119 -2.12,2.119Z" style="fill:#050f64;fill-rule:nonzero;"/><path d="M620.937,933.741c0.557,-1.134 1.681,-1.896 2.855,-2.354c1.178,-0.457 2.439,-0.655 3.663,-0.967c3,-0.764 5.816,-2.238 8.155,-4.269c1.223,-1.055 2.321,-2.27 3.701,-3.115l8.751,-1.539c1.451,1.041 2.558,2.568 3.278,4.221c0.654,1.495 1.017,3.095 1.244,4.714l0.368,1.815l-31.93,6.484l-0.369,-1.815l-0.007,0.001c-0.198,-1.098 -0.198,-2.193 0.291,-3.176Z" style="fill:#050f64;fill-rule:nonzero;"/><path d="M647.191,911.607l0.871,9.89l-8.751,1.539l-2.401,-8.822l10.281,-2.607Z" style="fill:#f5bdc8;fill-rule:nonzero;"/><path d="M580.776,943.729c0.591,-1.117 1.738,-1.845 2.924,-2.268c1.192,-0.422 2.459,-0.583 3.691,-0.858c3.021,-0.674 5.88,-2.064 8.278,-4.025c1.254,-1.017 2.387,-2.199 3.791,-3.003l8.794,-1.278c1.419,1.084 2.48,2.643 3.151,4.316c0.609,1.515 0.925,3.124 1.104,4.749l0.314,1.826l-32.109,5.531l-0.315,-1.825l-0.007,0.001c-0.165,-1.103 -0.132,-2.198 0.384,-3.166Z" style="fill:#050f64;fill-rule:nonzero;"/><path d="M607.679,922.386l0.575,9.911l-8.794,1.278l-2.137,-8.889l10.356,-2.3Z" style="fill:#f5bdc8;fill-rule:nonzero;"/><path d="M553.334,777.639c-1.904,-8.51 2.52,-17.24 10.549,-20.716l96.004,-35.836l0.026,-0.012c12.121,-5.276 26.224,0.273 31.499,12.394c3.928,9.023 1.853,19.143 -4.464,25.904l0.003,0.003l-0.018,0.014c-2.165,2.313 -4.825,4.233 -7.914,5.578c-0.47,0.205 -56.887,19.703 -87.543,24.261l16.928,132.996l-11.878,2.638l-43.192,-147.224Z" style="fill:#155bcd;fill-rule:nonzero;"/><path d="M562.455,759.403c-1.806,-1.726 -2.114,-4.414 -0.705,-6.134l3.102,-3.843l3.035,-3.884c2.046,-2.57 3.971,-5.215 5.947,-7.819c3.843,-5.275 7.613,-10.572 11.018,-16.006c3.409,-5.426 6.547,-10.935 9.194,-16.529c2.65,-5.595 4.784,-11.263 6.3,-17.005c1.518,-5.748 2.458,-11.558 2.889,-17.605c0.453,-6.036 0.497,-12.279 0.401,-18.711c-0.099,-6.429 -0.326,-13.034 -0.497,-19.731c-0.171,-6.697 -0.316,-13.479 -0.308,-20.305c0.106,-4.328 2.172,-8.161 5.426,-10.749c3.242,-2.594 7.599,-3.945 12.266,-3.482c4.667,0.462 8.704,2.613 11.431,5.615c2.713,3.006 4.188,6.875 3.678,10.942c-0.957,6.392 -1.775,12.846 -2.575,19.385c-0.801,6.541 -1.55,13.178 -2.453,19.977c-0.907,6.792 -1.975,13.77 -3.579,20.829c-1.574,7.051 -3.825,14.164 -6.74,20.903c-2.909,6.751 -6.478,13.103 -10.428,18.995c-3.95,5.901 -8.264,11.376 -12.738,16.598c-4.471,5.229 -9.181,10.125 -13.921,14.945c-2.412,2.361 -4.778,4.766 -7.232,7.059l-3.652,3.471l-3.696,3.406c-1.658,1.545 -4.357,1.403 -6.163,-0.322Z" style="fill:#ea8096;fill-rule:nonzero;"/><path d="M636.334,657.182l3.054,-37.385c0.924,-11.308 -6.683,-21.482 -17.992,-22.406c-11.307,-0.923 -22.036,7.753 -22.959,19.061l-3.053,37.385l40.95,3.345Z" style="fill:#fff;fill-rule:nonzero;"/><path d="M631.803,583.514c-26.272,11.165 -34.649,42.063 -21.509,67.405c9.571,18.46 34.415,75.788 34.415,75.788c4.241,7.687 81.103,35.35 84.291,9.961c3.985,-31.732 -30.703,-99.241 -43.939,-130.993c-8.667,-20.794 -32.526,-30.973 -53.258,-22.161Z" style="fill:#fff;fill-rule:nonzero;"/><path d="M619.224,590.173c0.173,0.268 0.349,0.543 0.521,0.818c3.466,-3.001 7.491,-5.536 12.056,-7.476l0.003,-0.001c2.665,-1.133 5.382,-1.951 8.111,-2.473c-0.076,-0.305 -0.156,-0.623 -0.234,-0.947c-0.999,0.191 -1.994,0.422 -2.99,0.693c-1.782,0.486 -3.555,1.104 -5.269,1.83c-4.519,1.924 -8.614,4.472 -12.198,7.556Zm-11.129,58.442l0.77,-0.671c-6.526,-14.622 -6.143,-30.729 0.483,-43.666l-1.076,-0.026c-0.821,1.635 -1.547,3.331 -2.175,5.082c-4.481,12.449 -3.728,26.6 1.998,39.281Zm38.746,81.33c3.865,2.618 10.742,5.699 18.148,8.437l-0.108,-1.073c-7.305,-2.728 -13.402,-5.558 -16.965,-7.832l-1.075,0.468Zm82.164,-4.783c0.332,0.108 0.674,0.216 1.016,0.325c-1.039,-11.57 -4.954,-25.598 -10.179,-40.266l-0.956,0.261c5.142,14.442 9.029,28.279 10.119,39.68Zm-40.409,20.216c7.376,1.641 15.97,3 23.425,2.718l-0.111,-0.964c-6.873,0.251 -15.129,-0.888 -23.472,-2.769l0.158,1.015Zm-71.751,-78.692c6.703,14.383 15.025,33.139 20.636,45.911l0.713,-0.799c-5.62,-12.79 -13.863,-31.366 -20.519,-45.641l-0.83,0.529Zm51.765,-80.285c7.128,4.383 12.994,10.988 16.45,19.275c5.087,12.203 13.342,29.69 21.356,48.399l0.834,-0.536c-3.963,-9.237 -7.995,-18.211 -11.709,-26.474c-3.777,-8.408 -7.04,-15.669 -9.583,-21.765c-3.55,-8.513 -9.612,-15.32 -16.984,-19.821l-0.364,0.922Z" style="fill:#84a9ff;fill-rule:nonzero;"/><path d="M629.309,585.021c0,0 20.829,-5.321 5.023,-34.817c0,0 -10.144,-2.336 -10.805,-2.37c-0.662,-0.034 0.639,24.006 0.639,24.006l5.143,13.181Z" style="fill:#050f64;fill-rule:nonzero;"/><path d="M615.896,579.015l12.253,17.804c7.409,-0.366 12.451,-4.007 15.128,-10.924l-12.255,-17.803l-15.126,10.923Z" style="fill:#f5bdc8;fill-rule:nonzero;"/><path d="M617.413,581.119l4.158,5.759c3.254,-0.287 6.472,-1.351 9.355,-3.232c0.161,-0.109 0.322,-0.218 0.479,-0.331c2.62,-1.892 4.418,-4.72 4.97,-7.807l-3.835,-5.312l-15.127,10.923Z" style="fill:#ea8096;fill-rule:nonzero;"/><path d="M597.691,570.585l5.341,4.81l3.134,2.527c5.658,7.308 15.977,9.051 23.723,4.003c0.768,-0.5 1.485,-1.123 2.107,-1.843c0.235,-0.277 0.464,-0.565 0.676,-0.871l0.131,-0.192c0.781,-1.177 1.32,-2.537 1.526,-4c0.44,-3.178 0.123,-6.097 -0.344,-9.028c-0.406,-2.557 -0.888,-5.03 -1.63,-7.377c-0.881,-2.792 -2.139,-5.408 -4.09,-7.793l-10.17,-14.29l-20.053,19.824l-0.351,14.23Z" style="fill:#f5bdc8;fill-rule:nonzero;"/><path d="M596.848,564.582c0,0 -2.94,-5.233 -3.3,-12.008c-0.311,-5.826 5.037,-16.711 15.433,-17.007c-1.381,-2.772 -1.601,-6.038 -0.305,-9.017c2.393,-5.5 9.012,-7.922 14.785,-5.41c5.771,2.511 8.511,9.006 6.117,14.506c-0.724,1.664 -1.84,3.04 -3.197,4.089c0.244,0.18 0.49,0.368 0.742,0.576c3.822,3.156 9.785,11.146 6.731,17.111c-1.031,2.01 -5.734,3.294 -9.379,-2.005c-0.204,-0.296 -5.021,-9.663 -7.617,-11.506c-0.035,1.359 -0.891,4.47 -7.329,7.077c-3.216,1.302 -5.545,2.969 -7.151,4.907c-1.526,4.513 -1.943,8.691 -2.861,12.478c-0.902,3.718 2,5.057 4.919,6.241c4.308,1.748 4.877,7.629 3.017,10.429c0,0 1.569,-7.007 -5.411,-8.251c-5.463,-0.973 -7.68,-9.693 -5.194,-12.21Z" style="fill:#050f64;fill-rule:nonzero;"/><path d="M625.001,557.252c2.195,3.04 6.438,3.725 9.478,1.529c3.041,-2.195 3.725,-6.438 1.53,-9.478c-2.195,-3.04 -6.439,-3.724 -9.478,-1.529c-3.04,2.195 -3.724,6.438 -1.53,9.478Z" style="fill:#f5bdc8;fill-rule:nonzero;"/><path d="M591.997,751.992c-1.679,-1.848 -1.797,-4.552 -0.27,-6.167l3.365,-3.615l3.302,-3.659c2.222,-2.42 4.331,-4.923 6.485,-7.381c4.205,-4.99 8.34,-10.008 12.119,-15.188c3.784,-5.172 7.304,-10.446 10.338,-15.839c3.04,-5.394 5.567,-10.897 7.485,-16.518c1.921,-5.627 3.267,-11.356 4.125,-17.357c0.878,-5.989 1.363,-12.214 1.72,-18.636c0.355,-6.42 0.595,-13.025 0.897,-19.716c0.302,-6.694 0.636,-13.469 1.126,-20.277c0.412,-4.31 2.743,-7.988 6.171,-10.339c3.417,-2.359 7.86,-3.399 12.482,-2.608c4.623,0.791 8.497,3.221 11.006,6.408c2.494,3.19 3.691,7.154 2.896,11.174c-1.405,6.309 -2.677,12.689 -3.937,19.155c-1.26,6.468 -2.476,13.036 -3.856,19.754c-1.385,6.711 -2.943,13.596 -5.04,20.525c-2.068,6.923 -4.816,13.859 -8.199,20.375c-3.379,6.529 -7.388,12.613 -11.743,18.212c-4.357,5.607 -9.046,10.764 -13.877,15.657c-4.83,4.9 -9.874,9.451 -14.943,13.925c-2.572,2.185 -5.102,4.416 -7.711,6.531l-3.888,3.204l-3.928,3.138c-1.762,1.423 -4.445,1.091 -6.125,-0.758Z" style="fill:#f5bdc8;fill-rule:nonzero;"/><path d="M672.907,655.242l5.686,-37.077c1.719,-11.215 -5.151,-21.9 -16.365,-23.619c-11.215,-1.72 -22.529,6.178 -24.249,17.392l-5.684,37.077l40.612,6.227Z" style="fill:#fff;fill-rule:nonzero;"/><path d="M678.167,620.941l-4.451,29.03l0.834,0.024l4.457,-29.08l-0.84,0.026Zm-32.401,30.139l-0.195,0.81l14.324,2.194l0.119,-0.82l-14.248,-2.184Zm-5.61,-47.175l0.592,0.615c4.381,-7.034 12.96,-11.283 21.48,-9.975c5.013,0.77 9.159,3.332 12.053,6.932l0.686,-0.473c-3.15,-3.94 -7.57,-6.502 -12.613,-7.279c-1.286,-0.195 -2.597,-0.274 -3.906,-0.233c-7.595,0.241 -14.455,4.366 -18.292,10.413Zm-5.013,26.545l2.362,-15.423l-0.806,-0.198l-2.366,15.439l0.81,0.182Zm-3.791,19.259l7.37,1.13l0.165,-0.813l-6.592,-1.009l1.326,-8.645l-0.789,-0.31l-1.48,9.647Z" style="fill:#84a9ff;fill-rule:nonzero;"/><path d="M598.926,758.549l95.407,-41.894l0.025,-0.013c11.814,-5.932 26.2,-1.164 32.131,10.65c4.416,8.794 2.899,19.013 -3.039,26.109l0.003,0.003l-0.017,0.016c-2.036,2.427 -4.585,4.49 -7.597,6.002c-0.458,0.23 -56.085,22.887 -86.573,29.12l18.646,122.883l-11.794,2.99l-45.198,-135.893c-2.119,-8.303 0.351,-16.15 8.006,-19.973Z" style="fill:#155bcd;fill-rule:nonzero;"/><path d="M596.746,799.117l7.086,21.308l0.984,-0.121l-7.066,-21.249l-1.004,0.062Zm44.856,70.712l0.977,-0.038l-12.214,-80.484c3.349,-0.708 7.134,-1.636 11.265,-2.763c4.697,-1.28 9.655,-2.763 14.692,-4.361l-0.256,-0.938c-9.678,3.068 -19.05,5.711 -26.799,7.296l12.335,81.288Zm-29.217,-23.69l20.956,63.002l1.083,0.179l-21.099,-63.437l-0.94,0.256Zm25.537,67.817l0.366,0.912l10.719,-2.718l-3.068,-20.222l-0.962,0.139l2.935,19.357l-9.99,2.532Zm-47.945,-135.194l0.009,0.035l0.771,2.323l0.941,-0.257l-0.779,-2.341c-2.118,-8.302 0.351,-16.151 8.007,-19.972l41.277,-18.128l-0.642,-0.779l-41.071,18.034c-7.601,3.8 -10.862,11.878 -8.513,21.085Zm103.254,-10.516l0.391,0.889c13.154,-4.947 22.53,-8.784 22.651,-8.844c1.813,-0.907 3.48,-2.013 4.995,-3.31l-1.139,-0.318c-1.3,1.047 -2.733,1.978 -4.29,2.759c-0.187,0.095 -9.534,3.91 -22.608,8.824Z" style="fill:#84a9ff;fill-rule:nonzero;"/><path d="M523.74,791.87l130.261,-56.884l-1.91,-4.373l-130.261,56.884l1.91,4.373Z" style="fill:#ff654f;fill-rule:nonzero;"/><path d="M521.83,787.497l80.905,-35.331l-53.909,-55.311l-80.905,35.332l53.909,55.31Z" style="fill:#ff654f;fill-rule:nonzero;"/><path d="M533.294,749.934c4.61,6.072 10.172,9.61 12.421,7.903c2.249,-1.708 0.334,-8.015 -4.277,-14.087c-4.611,-6.072 -10.171,-9.61 -12.42,-7.902c-2.249,1.707 -0.334,8.014 4.276,14.086Z" style="fill:#fff;fill-rule:nonzero;"/><path d="M1726.18,1219.94c-30.6,-22.75 -66.34,-38.79 -102.09,-50.1c-0.32,-0.11 -0.65,-0.22 -0.97,-0.31c-94.09,-29.54 -187.89,-26.4 -187.89,-26.4c0.24,-15.14 0.32,-30.27 0.22,-45.41l0,-0.15l-0.01,-1.4l-0.2,-43.41c73.28,-11.03 138.07,-2.26 187.13,10.63c4.55,1.19 8.97,2.43 13.25,3.68c120.68,35.4 161.34,124.26 161.34,124.26c-63.25,-42.93 -110.22,-46.37 -111.45,-46.69c24.08,18.08 40.67,75.3 40.67,75.3Z" style="fill:#050f64;fill-rule:nonzero;"/><path d="M1624.09,1169.84c5.21,122.4 21.68,244.8 49.37,367.2l-289.18,0c29.79,-131.59 46.57,-263.19 50.37,-394.79c0.44,-14.84 0.7,-29.69 0.8,-44.53l0,-0.15l-0.01,-1.4l-0.2,-43.41c0,-0.25 -0.01,-0.49 -0.01,-0.75c-2.27,-140.07 -19.24,-280.132 -50.95,-420.214l289.18,0c-29.7,131.279 -46.48,262.548 -50.34,393.814c-0.37,12.6 -0.63,25.19 -0.75,37.78c-0.26,25.24 -0.06,50.46 0.63,75.69c0.28,10.25 0.64,20.51 1.09,30.76Z" style="fill:#e4e5ea;fill-rule:nonzero;"/><path d="M1796.96,1003.81c0,0 -40.66,88.87 -161.34,124.27c-50.36,14.77 -120.3,26.35 -200.39,14.3c-0.2,-0.03 -0.38,-0.09 -0.58,-0.13c0.88,-30.07 1.06,-60.16 0.58,-90.24c0,0 93.8,3.14 187.89,-26.4c36.07,-11.33 72.17,-27.457 103.06,-50.413c0,0 -16.58,57.224 -40.67,75.303c1.24,-0.32 48.2,-3.76 111.45,-46.69Z" style="fill:#155bcc;fill-rule:nonzero;"/><rect x="1107.7" y="986.198" width="308.29" height="556.112" style="fill:#83a8ff;fill-rule:nonzero;"/><rect x="1215.14" y="1028.15" width="177.31" height="64.17" style="fill:#fff;fill-rule:nonzero;"/><rect x="1086.46" y="986.198" width="21.24" height="556.112" style="fill:#155bcc;fill-rule:nonzero;"/><rect x="1162.7" y="1065.4" width="308.29" height="476.91" style="fill:#ffca32;fill-rule:nonzero;"/><rect x="1210.45" y="1124.24" width="212.79" height="79.95" style="fill:#fff;fill-rule:nonzero;"/><path d="M1319.49,1542.31c-1.46,0 -2.65,-1.18 -2.65,-2.64l0,-457.68c0,-1.46 1.19,-2.65 2.65,-2.65c1.47,0 2.65,1.19 2.65,2.65l0,457.68c0,1.46 -1.18,2.64 -2.65,2.64Z" style="fill:#050f64;fill-rule:nonzero;"/><path d="M1449.08,1542.31c-1.47,0 -2.65,-1.18 -2.65,-2.64l0,-457.68c0,-1.46 1.18,-2.65 2.65,-2.65c1.46,0 2.64,1.19 2.64,2.65l0,457.68c0,1.46 -1.18,2.64 -2.64,2.64Z" style="fill:#050f64;fill-rule:nonzero;"/><path d="M1449.08,1472.88l-129.59,0c-1.17,0 -2.12,-0.95 -2.12,-2.12c0,-1.17 0.95,-2.12 2.12,-2.12l129.59,0c1.17,0 2.11,0.95 2.11,2.12c0,1.17 -0.94,2.12 -2.11,2.12Z" style="fill:#050f64;fill-rule:nonzero;"/><path d="M1449.08,1408.9l-129.59,0c-1.17,0 -2.12,-0.94 -2.12,-2.11c0,-1.17 0.95,-2.12 2.12,-2.12l129.59,0c1.17,0 2.11,0.95 2.11,2.12c0,1.17 -0.94,2.11 -2.11,2.11Z" style="fill:#050f64;fill-rule:nonzero;"/><path d="M1449.08,1344.93l-129.59,0c-1.17,0 -2.12,-0.94 -2.12,-2.12c0,-1.17 0.95,-2.11 2.12,-2.11l129.59,0c1.17,0 2.11,0.94 2.11,2.11c0,1.18 -0.94,2.12 -2.11,2.12Z" style="fill:#050f64;fill-rule:nonzero;"/><path d="M1449.08,1280.96l-129.59,0c-1.17,0 -2.12,-0.95 -2.12,-2.12c0,-1.17 0.95,-2.12 2.12,-2.12l129.59,0c1.17,0 2.11,0.95 2.11,2.12c0,1.17 -0.94,2.12 -2.11,2.12Z" style="fill:#050f64;fill-rule:nonzero;"/><path d="M1449.08,1216.99l-129.59,0c-1.17,0 -2.12,-0.95 -2.12,-2.12c0,-1.17 0.95,-2.12 2.12,-2.12l129.59,0c1.17,0 2.11,0.95 2.11,2.12c0,1.17 -0.94,2.12 -2.11,2.12Z" style="fill:#050f64;fill-rule:nonzero;"/><path d="M1449.08,1153.02l-129.59,0c-1.17,0 -2.12,-0.95 -2.12,-2.12c0,-1.17 0.95,-2.12 2.12,-2.12l129.59,0c1.17,0 2.11,0.95 2.11,2.12c0,1.17 -0.94,2.12 -2.11,2.12Z" style="fill:#050f64;fill-rule:nonzero;"/><rect x="1218.23" y="914.293" width="87.22" height="71.905" style="fill:#ffca32;fill-rule:nonzero;"/><rect x="1218.23" y="898.977" width="87.22" height="15.316" style="fill:#ff654f;fill-rule:nonzero;"/><path d="M1245.47,940.171l-5.04,0l0,-7.556l12.6,0l0,35.261l-7.56,0l0,-27.705Z" style="fill:#dcab28;fill-rule:nonzero;"/><path d="M1283.25,932.615l0,7.556l-11.59,27.705l-8.56,0l11.59,-27.705l-16.63,0l0,-7.556l25.19,0Z" style="fill:#dcab28;fill-rule:nonzero;"/><path d="M1173.11,1542.31l-47.76,0c0.04,-1.63 0.36,-3.2 1.35,-4.47c1.13,-1.47 2.97,-2.23 4.78,-2.55c1.83,-0.31 3.7,-0.23 5.55,-0.32c4.53,-0.22 9,-1.52 12.95,-3.75c2.06,-1.16 3.99,-2.59 6.22,-3.4l13.02,0.34c1.78,1.92 2.92,4.44 3.48,7.02c0.5,2.34 0.55,4.74 0.41,7.13Z" style="fill:#050f64;fill-rule:nonzero;"/><path d="M1172.87,1514.09l-3.65,14.07l-13.02,-0.34l0.77,-15.12l15.9,1.39Z" style="fill:#f5bdc8;fill-rule:nonzero;"/><path d="M1152.59,1393.73c-0.23,-9.08 0.58,-18.15 2.41,-27.04c6.34,-30.66 17.73,-89.7 17.73,-89.71c1.77,-12.72 12.34,-16.45 25.06,-14.68c7.4,1.02 76.85,15.4 76.79,16.05l-15.14,235.34l-19.32,-0.66l-20.7,-185.39l-31.76,58.22l-0.02,0.07l-13.44,128.26l-18.56,-1.27l-3.05,-119.19Z" style="fill:#050f64;fill-rule:nonzero;"/><path d="M1260.19,1542.31l-47.75,0c0.04,-1.63 0.36,-3.21 1.34,-4.47c1.14,-1.47 2.97,-2.24 4.79,-2.55c1.83,-0.32 3.7,-0.23 5.54,-0.32c4.53,-0.22 9.01,-1.52 12.96,-3.76c2.06,-1.15 3.99,-2.58 6.22,-3.39l13.01,0.34c1.78,1.92 2.93,4.44 3.48,7.02c0.51,2.34 0.56,4.74 0.41,7.13Z" style="fill:#050f64;fill-rule:nonzero;"/><path d="M1257.86,1513.64l-1.56,14.52l-13.01,-0.34l-2.02,-14.75l16.59,0.57Z" style="fill:#f5bdc8;fill-rule:nonzero;"/><path d="M1263.84,1110.77c5.67,-1.23 11.83,0.05 16.55,3.42c7.99,5.71 10.9,16.07 13.11,25.65c5.65,24.44 10.28,49.2 11.74,74.24c0.27,4.62 0.43,9.3 -0.45,13.84c-0.88,4.55 -2.89,9 -6.36,12.07c-5.54,4.89 -14.58,5.24 -20.47,0.77c-7.22,-5.46 -8.55,-15.59 -9.3,-24.61c-1.26,-15.05 -2.51,-30.09 -3.77,-45.13c-1.03,-12.42 -2.11,-25.2 -7.12,-36.77c-1.79,-4.13 -7.5,-10.26 -6.14,-15c1.31,-4.55 8.07,-7.58 12.21,-8.48Z" style="fill:#155bcc;fill-rule:nonzero;"/><path d="M1065.96,1096.51c2.53,-0.42 4.91,1.01 5.51,3.24c1.81,6.61 4.08,13.03 6.92,19c2.83,5.95 6.31,11.43 10.48,15.85c4.14,4.46 8.97,7.72 14.21,9.68c2.63,0.97 5.37,1.64 8.19,2.03c2.82,0.39 5.73,0.47 8.68,0.34c5.92,-0.27 12,-1.48 18.06,-3.27c6.06,-1.79 12.1,-4.18 18.06,-6.9c5.96,-2.74 11.86,-5.81 17.67,-9.14c5.81,-3.32 11.54,-6.88 17.2,-10.61c3.65,-2.27 7.96,-2.71 12.03,-1.55c4.06,1.13 7.88,3.86 10.37,7.95c2.49,4.1 3.1,8.76 2.02,12.97c-1.08,4.18 -3.87,7.91 -8.07,9.99c-6.67,3.15 -13.45,6.13 -20.38,8.88c-6.93,2.75 -14.01,5.26 -21.29,7.42c-7.29,2.14 -14.76,3.95 -22.52,5.07c-7.74,1.12 -15.78,1.6 -23.99,0.8c-4.09,-0.42 -8.22,-1.14 -12.28,-2.32c-4.06,-1.19 -8.05,-2.8 -11.79,-4.86c-7.51,-4.14 -13.83,-10.11 -18.4,-16.75c-4.64,-6.64 -7.77,-13.82 -10.03,-21.01c-2.24,-7.2 -3.67,-14.46 -4.59,-21.69c-0.33,-2.45 1.43,-4.69 3.94,-5.12Z" style="fill:#ea8096;fill-rule:nonzero;"/><path d="M1163.61,1175.49l39.32,-20.28c11.89,-6.13 17.32,-20.09 11.19,-31.98c-6.13,-11.89 -21.51,-17.21 -33.4,-11.08l-39.31,20.27l22.2,43.07Z" style="fill:#ff654f;fill-rule:nonzero;"/><path d="M1188.3,1128.17l-5.12,-2.98c0.24,-0.4 5.91,-9.99 19.56,-15.81c12.32,-5.25 33.85,-8.31 66.4,6.94l-2.51,5.36c-57.71,-27.03 -77.52,5.11 -78.33,6.49Z" style="fill:#155bcc;fill-rule:nonzero;"/><path d="M1221.99,1109.57c-26.07,-2.32 -48.55,18.17 -48.66,44.35l-0.6,123.06c41.65,20.19 65.16,13.44 101.85,1.37l-2.63,-115.62c-0.74,-27.83 -22.22,-50.69 -49.96,-53.16Z" style="fill:#ff654f;fill-rule:nonzero;"/><path d="M1171.88,1277.51l0.48,0.23c2.85,1.38 5.64,2.65 8.38,3.8l0.21,-0.83c-2.66,-1.12 -5.4,-2.37 -8.22,-3.73l0.21,-43.84l-0.84,0l-0.22,44.37Zm102.7,0.84c-4.41,1.45 -8.63,2.83 -12.71,4.08c0,0.3 0.01,0.58 0.01,0.88c4.13,-1.27 8.43,-2.66 12.96,-4.15l0.59,-0.2l-0.6,-26.63l-0.84,0.12l0.59,25.9Zm-17.57,-153.03c-0.19,0.2 -0.4,0.4 -0.6,0.6c9.33,9.58 15.16,22.54 15.54,36.81l0.64,28.03l0.84,0l-0.63,-28.04c-0.39,-14.5 -6.31,-27.67 -15.79,-37.4Zm-51.53,163.01l-0.29,0.8c5.6,1.05 11.06,1.56 16.5,1.56c2.45,0 4.87,-0.1 7.3,-0.3l0.06,-0.85c-7.63,0.62 -15.33,0.33 -23.57,-1.21Zm-33.22,-89.49l0.85,0l0.22,-44.92c0.1,-24.82 20.31,-44.53 44.64,-44.53c1.33,0 2.67,0.06 4.02,0.18c0.76,0.07 1.51,0.15 2.25,0.25c-0.07,-0.29 -0.13,-0.59 -0.18,-0.87c-0.66,-0.09 -1.32,-0.16 -1.99,-0.22c-1.36,-0.12 -2.74,-0.18 -4.1,-0.18c-24.98,0 -45.39,20.35 -45.49,45.37l-0.22,44.92Z" style="fill:#da5544;fill-rule:nonzero;"/><path d="M1209.11,1095.53l0.94,31.81c7.04,4.28 13.95,4.07 20.73,-0.62l-0.95,-31.8l-20.72,0.61Z" style="fill:#f5bdc8;fill-rule:nonzero;"/><path d="M1209.11,1095.53l0.43,14.39c1.47,0.52 3.04,0.83 4.67,0.92c0.52,0.03 1.04,0.04 1.57,0.02c5.7,-0.17 10.98,-2.97 14.3,-7.41l-0.25,-8.53l-20.72,0.61Z" style="fill:#ea8096;fill-rule:nonzero;"/><path d="M1199.11,1076.36l1.27,18.65c0.5,7.45 6.49,13.35 13.94,13.75c6.78,0.36 13.13,-3.43 15.9,-9.62c1.84,-4.1 3.47,-8.84 5.02,-13.83c2.47,-7.98 0.49,-16.8 -5.46,-22.66c-5.07,-5 -11.3,-6.41 -18.77,-3.98c-7.55,2.46 -12.43,9.77 -11.9,17.69Z" style="fill:#f5bdc8;fill-rule:nonzero;"/><path d="M1221.78,1154.44l-5.72,-1.49c2.7,-10.37 7.16,-18.42 13.26,-23.95c13.09,-11.87 33.17,-10.5 47.58,-5.27l-2.02,5.56c-12.8,-4.64 -30.44,-6.01 -41.59,4.1c-5.23,4.74 -9.1,11.82 -11.51,21.05Z" style="fill:#155bcc;fill-rule:nonzero;"/><path d="M1223.02,1321.33c-1.87,-1.73 -2.48,-4.26 -1.35,-6.19c3.33,-5.81 5.88,-12.29 7.97,-18.84c2.05,-6.6 3.6,-13.37 4.76,-20.21c0.27,-1.72 0.59,-3.42 0.8,-5.15l0.67,-5.16l0.51,-5.19c0.19,-1.73 0.26,-3.48 0.39,-5.21l0.18,-2.6l0.1,-2.61c0.06,-1.74 0.14,-3.48 0.18,-5.22c0.01,-3.49 0.12,-6.96 -0.01,-10.45c-0.53,-27.91 -5.01,-55.71 -11.66,-82.96c-0.23,-1.09 -0.34,-2.17 -0.32,-3.24c0,-1.08 0.1,-2.13 0.32,-3.16c0.43,-2.07 1.3,-4.03 2.52,-5.79c2.45,-3.52 6.32,-6.23 11.02,-7.18c4.7,-0.94 9.28,0.11 12.86,2.62c1.79,1.25 3.33,2.86 4.51,4.75c0.58,0.94 1.09,1.95 1.47,3.02c0.36,1.08 0.62,2.21 0.76,3.39c3.01,29.7 3.69,59.84 0.11,89.71c-0.39,3.73 -1.01,7.45 -1.54,11.16c-0.3,1.86 -0.65,3.71 -0.97,5.56l-0.5,2.78l-0.58,2.76c-0.4,1.84 -0.74,3.69 -1.19,5.52l-1.33,5.49l-1.49,5.46c-0.48,1.81 -1.09,3.61 -1.63,5.41c-2.27,7.2 -4.96,14.28 -8.19,21.14c-3.29,6.84 -7,13.48 -11.78,19.65c-1.61,2.11 -4.71,2.49 -6.59,0.74Z" style="fill:#f5bdc8;fill-rule:nonzero;"/><path d="M1269.19,1197.81l-4.19,-44.04c-1.27,-13.32 -12.2,-23.55 -25.52,-22.29c-13.32,1.27 -23.98,13.56 -22.71,26.88l4.19,44.04l48.23,-4.59Z" style="fill:#ff654f;fill-rule:nonzero;"/><path d="M1266.25,1166.89l2.43,25.57l0.84,-0.11l-2.42,-25.46l-0.85,0Zm-45.62,32.06l-0.84,0.14l0.4,4.23l26.98,-2.57l-0.06,-0.84l-26.15,2.48l-0.33,-3.44Zm-3.83,-31.34l2.1,22.16l0.85,0l-2.12,-22.3l-0.83,0.14Zm5.53,-28.12l0.71,0.48c4.15,-4.66 9.98,-7.87 16.44,-8.49c8.71,-0.82 16.4,3.26 21.03,9.92l0.72,-0.45c-4.43,-6.37 -11.55,-10.42 -19.53,-10.42c-0.76,0 -1.54,0.04 -2.3,0.11c-6.44,0.62 -12.64,3.83 -17.07,8.85Z" style="fill:#da5544;fill-rule:nonzero;"/><path d="M1202.89,1066.39c0,0 -3.63,6.18 -3.26,17.63c0,0 -2.32,-11.52 -0.13,-20.53l3.39,2.9Z" style="fill:#050f64;fill-rule:nonzero;"/><path d="M1241.91,1085.29c0,0 10.35,-14.82 0.09,-26.61c-11.05,-12.7 -18.54,-11.55 -26.62,-9.55c-10.21,2.53 -15.76,5.94 -19.62,5.02c-2.07,-0.5 -3.86,-2.3 -4.22,-1.12c-0.37,1.17 -1.07,8.15 4.66,13.5c5.74,5.35 13.39,4.74 20.97,1.02c7.59,-3.72 11.12,-3.15 14.15,1.55c3.22,4.98 -1.54,13.82 -1.54,13.82l2.29,0.89c0,0 8.83,-4.88 9.84,1.48Z" style="fill:#050f64;fill-rule:nonzero;"/><path d="M1227.27,1083.87c0.11,3.82 3.68,6.81 7.97,6.68c4.28,-0.13 7.67,-3.32 7.55,-7.14c-0.11,-3.82 -3.68,-6.81 -7.97,-6.68c-4.28,0.13 -7.67,3.33 -7.55,7.14Z" style="fill:#f5bdc8;fill-rule:nonzero;"/><path d="M414.77,1520.66l42.897,21.65c0.71,-1.48 1.135,-3.04 0.824,-4.63c-0.351,-1.83 -1.654,-3.35 -3.144,-4.45c-1.497,-1.11 -3.216,-1.89 -4.834,-2.81c-3.969,-2.25 -7.402,-5.44 -9.937,-9.24c-1.328,-1.98 -2.416,-4.13 -4.05,-5.87l-11.846,-5.6c-2.47,0.92 -4.639,2.66 -6.306,4.73c-1.512,1.87 -2.651,4.01 -3.604,6.22Z" style="fill:#050f64;fill-rule:nonzero;"/><path d="M373.086,1536.14l47.654,6.17c0.176,-1.63 0.06,-3.24 -0.761,-4.64c-0.939,-1.61 -2.673,-2.61 -4.447,-3.16c-1.781,-0.55 -3.658,-0.7 -5.49,-1.03c-4.492,-0.81 -8.791,-2.68 -12.443,-5.42c-1.91,-1.43 -3.653,-3.1 -5.771,-4.2l-13.032,-1.34c-2.025,1.69 -3.493,4.05 -4.378,6.56c-0.804,2.26 -1.169,4.66 -1.332,7.06Z" style="fill:#050f64;fill-rule:nonzero;"/><path d="M393.201,1377.39l0,0.01l-0.006,-0.01l0.006,0Z" style="fill:#050f64;fill-rule:nonzero;"/><path d="M399.617,1276.93l-0.002,0l0.006,0l-0.004,0Z" style="fill:#fff;fill-rule:nonzero;"/><path d="M393.201,1377.39l0,0.01l-0.006,-0.01l0.006,0Z" style="fill:#050f64;fill-rule:nonzero;"/><path d="M393.201,1377.39l0,0.01l-0.006,-0.01l0.006,0Z" style="fill:#050f64;fill-rule:nonzero;"/><path d="M393.201,1377.4l-0.006,-0.01l0.006,0l0,0.01Zm108.362,-4.55l0.013,0l-22.491,-101.02c0,-0.01 -102.968,6.15 -102.608,8.56l0.447,242.87l16.959,1.03l36.393,-190.01l32.081,50.64l-39.7,124.77l15.705,6.36l62.252,-133.82c1.187,-3.06 1.469,-6.3 0.949,-9.38Z" style="fill:#050f64;fill-rule:nonzero;"/><path d="M393.201,1377.4l-0.006,-0.01l0.006,0l0,0.01Z" style="fill:#050f64;fill-rule:nonzero;"/><path d="M530.841,1270.39c-4.132,-5.64 -8.356,-10.92 -12.362,-16.27c-1.018,-1.33 -1.969,-2.69 -2.958,-4.03c-0.964,-1.35 -1.982,-2.67 -2.904,-4.04l-2.798,-4.08l-1.397,-2.04l-1.323,-2.09c-7.138,-11.04 -13.278,-22.58 -18.57,-34.48c-2.469,-6.05 -5.065,-11.99 -7.141,-18.19l-1.646,-4.59c-0.265,-0.77 -0.564,-1.52 -0.804,-2.3l-0.717,-2.34l-2.868,-9.34c-0.234,-0.78 -0.488,-1.55 -0.706,-2.33l-0.613,-2.38l-1.225,-4.74l-1.225,-4.73l-0.611,-2.36l-0.302,-1.18l-0.256,-1.2l-2.041,-9.59c-0.675,-3.19 -1.404,-6.35 -1.896,-9.6c-0.794,-4.08 -3.467,-7.31 -7.125,-9.32c-3.656,-1.99 -8.295,-2.75 -12.977,-1.69c-4.682,1.07 -8.45,3.79 -10.715,7.36c-2.265,3.56 -3.026,7.98 -1.736,12.24c1.033,3.34 2.317,6.64 3.545,9.93l3.695,9.88l0.462,1.23l0.511,1.22l1.032,2.44l2.062,4.87l2.062,4.85l1.03,2.43c0.359,0.8 0.755,1.59 1.13,2.39l4.56,9.54l1.138,2.38c0.379,0.79 0.823,1.57 1.231,2.35l2.498,4.67c3.203,6.26 6.951,12.28 10.548,18.31c7.562,11.91 15.973,23.26 25.211,33.75l1.714,1.98l1.779,1.92l3.553,3.82c1.172,1.29 2.418,2.49 3.621,3.73c1.217,1.22 2.416,2.48 3.645,3.68c4.891,4.83 9.875,9.47 14.498,14.14c1.502,1.58 4.261,1.6 6.284,0.04c2.023,-1.57 2.513,-4.3 1.107,-6.24Z" style="fill:#ea8096;fill-rule:nonzero;"/><path d="M440.446,1189.9l-11.155,-43.09c-3.374,-13.03 3.455,-26.47 16.488,-29.85c13.034,-3.37 27.338,4.6 30.712,17.63l11.155,43.09l-47.2,12.22Z" style="fill:#155bcd;fill-rule:nonzero;"/><path d="M416.782,1105.12c26.008,-4.2 50.046,14.74 52.04,41.01l10.263,125.7c-40.35,23.27 -65.583,17.98 -103.277,8.51l-5.34,-118.26c-1.264,-27.99 18.653,-52.48 46.314,-56.96Z" style="fill:#155bcd;fill-rule:nonzero;"/><path d="M470.216,1146.03c-1.84,-24.28 -22.311,-43.11 -46.61,-42.89c-1.007,0.01 -2.02,0.06 -3.034,0.13l0,1.4c1.161,-0.08 2.316,-0.13 3.463,-0.13c23.075,0 42.981,17.79 44.789,41.59l1.834,22.5l1.379,-0.3l-1.821,-22.3Zm-98.825,36.55l-1.405,-0.17l1.283,28.43l1.398,0l-1.276,-28.26Zm40.716,106.55c3.848,0.42 7.645,0.65 11.48,0.66l0,-1.4c-3.624,-0.02 -7.234,-0.23 -10.883,-0.61l-0.597,1.35Zm62.348,-91.21l-1.397,0.1l6.027,73.81c-7.663,4.42 -14.788,7.81 -21.548,10.33l0.25,1.42c7.062,-2.61 14.315,-6.11 21.997,-10.53l0.77,-0.45l-6.099,-74.68Zm-98.645,82.42l-1.354,-30l-1.397,0.2l1.397,30.9l1.007,0.26c3.232,0.81 6.336,1.58 9.344,2.31l0.307,-1.38c-3.02,-0.72 -6.117,-1.49 -9.304,-2.29Zm1.763,-150.68c-3.104,4.97 -5.451,10.45 -6.894,16.25l1.334,0.43c1.417,-5.72 3.732,-11.13 6.81,-16.03l-1.25,-0.65Z" style="fill:#84a9ff;fill-rule:nonzero;"/><path d="M502.673,1163.37l-8.963,40.73l-4.054,0.24l8.956,-40.73l4.061,-0.24Z" style="fill:#e4e5ea;fill-rule:nonzero;"/><path d="M525.404,1162.01l-8.964,40.72l-22.73,1.37l8.963,-40.73l22.731,-1.36Z" style="fill:#ff654f;fill-rule:nonzero;"/><path d="M419.721,1102.07l0,5.86c-13.122,-1.41 -32.196,2.55 -56.452,23.46l-3.87,-4.48c26.068,-22.48 46.928,-26.08 60.322,-24.84Z" style="fill:#050f64;fill-rule:nonzero;"/><path d="M435.896,1092.88l-3.767,32.01c-7.483,3.7 -14.436,2.88 -20.857,-2.45l3.767,-32.01l20.857,2.45Z" style="fill:#f5bdc8;fill-rule:nonzero;"/><path d="M435.896,1092.88l-1.705,14.48c-1.529,0.4 -3.14,0.58 -4.795,0.52c-0.53,-0.02 -1.058,-0.06 -1.583,-0.12c-5.741,-0.68 -10.818,-3.97 -13.785,-8.74l1.011,-8.59l20.857,2.45Z" style="fill:#ea8096;fill-rule:nonzero;"/><path d="M447.678,1074.42l-2.084,13.31l-0.842,5.39c-1.163,7.48 -7.726,12.9 -15.282,12.65c-2.502,-0.09 -4.901,-0.72 -7.04,-1.81c-0.496,-0.25 -0.98,-0.53 -1.444,-0.82c-0.291,-0.19 -0.574,-0.38 -0.852,-0.58c-2.66,-1.95 -4.743,-4.66 -5.863,-7.91c-0.95,-2.74 -1.792,-5.73 -2.564,-8.88c-0.446,-1.8 -0.868,-3.65 -1.269,-5.52c-1.795,-8.27 0.985,-17 7.508,-22.38c5.558,-4.6 11.969,-5.48 19.289,-2.36c7.405,3.16 11.684,10.97 10.443,18.91Z" style="fill:#f5bdc8;fill-rule:nonzero;"/><path d="M420.597,1079.72l2.391,-1.15c0,0 -4.074,-9.73 -2.391,-12.87c2.391,-4.47 14.088,-5.03 19.909,-3.36c1.82,0.52 3.218,1.24 3.854,3.04c1.381,3.91 2.92,11.54 1.757,19.01c0,0 8.636,-22.47 1.637,-34.66c-4.584,-7.98 -8.784,-13.59 -19.318,-9.059c-16.729,7.199 -25.949,20.479 -23.301,40.149l10.982,-4.03l4.48,2.93Z" style="fill:#050f64;fill-rule:nonzero;"/><path d="M420.752,1081.12c-0.452,3.84 -4.316,6.54 -8.632,6.03c-4.316,-0.5 -7.448,-4.03 -6.996,-7.87c0.452,-3.84 4.316,-6.54 8.633,-6.04c4.315,0.51 7.447,4.04 6.995,7.88Z" style="fill:#f5bdc8;fill-rule:nonzero;"/><path d="M363.738,1119.82c-5.791,-0.26 -11.649,2.03 -15.731,6.15c-6.923,6.98 -8.045,17.68 -8.614,27.5c-1.455,25.04 -1.847,50.22 0.923,75.15c0.512,4.6 1.142,9.24 2.775,13.57c1.632,4.33 4.363,8.38 8.299,10.82c6.286,3.9 15.25,2.71 20.309,-2.68c6.194,-6.6 5.804,-16.81 5.028,-25.83c-1.296,-15.04 -2.591,-30.08 -3.887,-45.12c-1.069,-12.41 -2.157,-25.19 0.835,-37.43c1.07,-4.38 5.67,-11.39 3.529,-15.83c-2.052,-4.26 -9.225,-6.11 -13.466,-6.3Z" style="fill:#050f64;fill-rule:nonzero;"/><path d="M423.044,1154.64l5.392,-2.43c-4.409,-9.76 -10.164,-16.95 -17.104,-21.37c-14.904,-9.5 -34.46,-4.78 -47.786,2.8l2.924,5.15c11.834,-6.74 28.997,-11.05 41.684,-2.96c5.952,3.79 10.962,10.12 14.89,18.81Z" style="fill:#050f64;fill-rule:nonzero;"/><path d="M514.064,1177.89c-2.253,-1.21 -5.037,-0.53 -6.348,1.54c-3.986,6.08 -8.131,12.03 -12.602,17.56c-2.221,2.77 -4.529,5.44 -6.923,7.94c-2.389,2.51 -4.864,4.86 -7.419,6.93c-2.551,2.07 -5.189,3.85 -7.809,5.17c-0.652,0.35 -1.31,0.6 -1.954,0.9l-0.968,0.36l-0.479,0.18l-0.478,0.14c-1.269,0.44 -2.5,0.62 -3.682,0.77c-1.18,0.12 -2.31,0.06 -3.408,-0.06c-1.098,-0.16 -2.171,-0.46 -3.243,-0.83c-1.074,-0.43 -2.149,-0.93 -3.23,-1.57c-1.08,-0.67 -2.166,-1.39 -3.239,-2.28c-2.15,-1.73 -4.263,-3.85 -6.273,-6.23c-2.015,-2.38 -3.939,-4.99 -5.777,-7.74c-3.679,-5.51 -6.998,-11.57 -10.112,-17.8c-3.099,-6.25 -5.991,-12.72 -8.726,-19.3c-2.746,-6.58 -5.34,-13.28 -7.842,-20.05c-1.687,-4.24 -5.017,-7.37 -9.058,-8.99c-4.026,-1.62 -8.765,-1.72 -13.184,0.16c-4.419,1.88 -7.618,5.38 -9.176,9.51c-1.546,4.12 -1.449,8.88 0.729,13.17c3.564,6.68 7.241,13.34 11.117,19.94c3.866,6.61 7.935,13.16 12.316,19.62c4.413,6.45 9.099,12.83 14.518,18.94c2.713,3.05 5.607,6.04 8.796,8.89c3.182,2.85 6.696,5.56 10.688,7.92c1.973,1.19 4.13,2.25 6.371,3.18c2.26,0.92 4.672,1.66 7.16,2.18c2.517,0.48 5.105,0.74 7.697,0.68c2.588,-0.09 5.153,-0.43 7.587,-1.06c2.412,-0.65 4.752,-1.46 6.862,-2.52l0.803,-0.38l0.769,-0.42l1.522,-0.84c0.963,-0.6 1.949,-1.19 2.853,-1.84c3.66,-2.55 6.79,-5.43 9.598,-8.42c2.805,-3 5.293,-6.12 7.595,-9.3c2.305,-3.19 4.416,-6.44 6.387,-9.73c3.971,-6.57 7.412,-13.3 10.644,-20.08c1.085,-2.3 0.171,-5.03 -2.082,-6.24Z" style="fill:#f5bdc8;fill-rule:nonzero;"/><path d="M398.243,1207.02l-18.58,-40.45c-5.619,-12.23 -1.267,-26.67 10.967,-32.29c12.235,-5.62 27.719,-0.29 33.339,11.94l18.58,40.45l-44.306,20.35Z" style="fill:#155bcd;fill-rule:nonzero;"/><path d="M429.628,1192.61l-9.908,4.54l0.372,1.25l10.183,-4.68l-0.647,-1.11Zm4.919,-26.44l-1.129,0.62l4.707,10.25l1.001,-0.9l-4.579,-9.97Zm-33.541,-35.41c-3.841,0 -7.51,0.79 -10.908,2.36c-5.272,2.42 -9.369,6.51 -11.775,11.68l1.046,0.79c2.174,-4.82 5.983,-8.88 11.261,-11.3c6.323,-2.9 13.506,-2.89 19.752,-0.51l1.136,-0.95c-3.252,-1.34 -6.818,-2.07 -10.512,-2.07Zm-19.605,42.68l6.991,15.21l1.212,-0.44l-6.786,-14.77l-1.417,0Zm26.859,28.98l-10.018,4.6l-5.214,-11.35l-1.057,0.77l5.643,12.28l11.081,-5.09l-0.435,-1.21Zm16.872,-56.74c-0.693,-1.5 -1.526,-2.92 -2.494,-4.22l-0.988,0.81c0.891,1.22 1.673,2.54 2.322,3.95l1.846,4.02c0.392,-0.18 0.789,-0.34 1.174,-0.51l-1.86,-4.05Z" style="fill:#84a9ff;fill-rule:nonzero;"/><path d="M1766.6,1533.06c2.09,-0.34 4.25,-0.66 6.03,-1.81c2.54,-1.62 3.85,-4.67 4.25,-7.65c0.4,-2.99 0.04,-6.02 -0.01,-9.03c-0.16,-11.63 4.67,-23.25 13.04,-31.34c1.73,-1.66 3.67,-3.23 5.98,-3.87c2.32,-0.65 5.07,-0.19 6.61,1.65c1.29,1.54 1.51,3.77 1.05,5.73c-0.46,1.96 -1.5,3.72 -2.53,5.45c-6.94,11.62 -13.87,23.24 -20.8,34.85c-0.68,1.14 -1.37,2.32 -1.52,3.63c-0.15,1.32 0.42,2.81 1.63,3.32c1.24,0.52 2.71,-0.14 3.57,-1.17c0.85,-1.03 1.25,-2.36 1.68,-3.63c2.29,-6.75 6.25,-12.92 11.43,-17.81c1.67,-1.58 3.55,-3.07 5.78,-3.59c2.24,-0.52 4.9,0.18 6.06,2.16c1.02,1.74 0.64,4.03 -0.42,5.75c-1.06,1.72 -2.69,2.99 -4.29,4.22c-3.45,2.67 -6.9,5.33 -10.35,7.99c-1.3,1.01 -2.63,2.04 -3.51,3.44c-0.87,1.39 -1.22,3.24 -0.44,4.69c0.98,1.81 3.32,2.41 5.37,2.25c2.05,-0.15 4.04,-0.87 6.1,-0.91c2.05,-0.05 4.37,0.85 5.03,2.8c-0.08,-0.23 -30.03,1.9 -32.9,1.87c-3.31,-0.02 -11.94,1.32 -14.03,-1.87c-2.85,-4.38 4.26,-6.63 7.19,-7.12Z" style="fill:#84a9ff;fill-rule:nonzero;"/><path d="M247.664,1532.72c-2.725,-1.36 -5.862,-1.57 -8.904,-1.75c-1.018,-3.66 4.296,-6.89 3.256,-10.55c-0.565,-1.99 -3.012,-3.03 -5.004,-2.49c-1.993,0.55 -3.466,2.32 -4.171,4.27c-0.706,1.94 -0.761,4.05 -0.76,6.11c0,1.29 -0.131,2.85 -1.274,3.44c-1.437,0.75 -3.045,-0.71 -3.799,-2.14c-2.038,-3.87 -2.097,-8.43 -2.705,-12.76c-1.979,-14.11 -10.576,-27.15 -22.766,-34.52c-1.652,-1 -3.418,-1.92 -5.338,-2.13c-1.92,-0.22 -4.035,0.4 -5.158,1.98c-1.729,2.42 -0.503,5.79 1.021,8.34c7.959,13.35 22.813,22.36 27.71,37.1c-7.401,-1.71 -14.437,-4.99 -20.515,-9.55c-1.952,-1.46 -3.887,-3.1 -6.249,-3.71c-2.363,-0.61 -5.317,0.19 -6.238,2.45c-0.903,2.22 0.556,4.81 2.581,6.08c2.024,1.27 4.477,1.6 6.813,2.11c6.471,1.41 12.581,4.44 17.616,8.74c-4.138,1.08 -8.499,0.22 -12.772,0.02c-4.274,-0.19 -9.046,0.53 -11.754,3.84c2.975,1.73 6.606,1.77 10.05,1.77c10.781,-0.03 21.562,-0.05 32.343,-0.08c5.391,-0.01 10.782,0 16.172,-0.04c1.818,-0.01 4.24,0.31 4.029,-2.15c-0.155,-1.8 -2.755,-3.66 -4.184,-4.38Z" style="fill:#84a9ff;fill-rule:nonzero;"/><path d="M519.156,1553.48c0.685,2.36 2.826,1.21 4.532,0.57c5.041,-1.91 10.069,-3.86 15.098,-5.79c10.069,-3.86 14.991,2.93 25.061,-0.92c-3.917,1.71 -6.129,-11.17 -10.377,-10.69c3.147,-5.83 7.75,-10.85 13.288,-14.49c1.999,-1.32 4.165,-2.51 5.596,-4.43c1.432,-1.91 1.858,-4.85 0.225,-6.59c-1.681,-1.77 -4.722,-1.47 -6.709,-0.05c-1.976,1.42 -3.195,3.65 -4.496,5.72c-4.023,6.44 -9.407,12.02 -15.702,16.29c-0.734,-15.52 9.88,-29.27 12.507,-44.58c0.509,-2.94 0.438,-6.53 -2.047,-8.17c-1.621,-1.05 -3.81,-0.87 -5.526,0.02c-1.715,0.88 -3.029,2.37 -4.212,3.9c-8.72,11.28 -12.057,26.53 -8.827,40.41c0.994,4.26 2.579,8.53 2.071,12.87c-0.19,1.61 -1.159,3.55 -2.769,3.37c-1.29,-0.14 -1.965,-1.55 -2.426,-2.75c-0.745,-1.92 -1.561,-3.87 -2.911,-5.43c-1.36,-1.57 -3.372,-2.69 -5.43,-2.48c-2.059,0.2 -3.964,2.06 -3.775,4.12c0.342,3.79 6.46,4.89 6.839,8.67c-2.78,1.27 -5.632,2.58 -7.679,4.84c-1.078,1.19 -2.841,3.86 -2.331,5.59Z" style="fill:#84a9ff;fill-rule:nonzero;"/><rect x="145.322" y="1537.04" width="1709.36" height="22.81" style="fill:#e4e5ea;fill-rule:nonzero;"/><rect x="1530.05" y="1419.01" width="172.08" height="123.3" style="fill:#155bcc;fill-rule:nonzero;"/><rect x="1552.88" y="1328.37" width="126.43" height="90.59" style="fill:#ff654f;fill-rule:nonzero;"/><rect x="1577.58" y="1273.12" width="77.03" height="55.2" style="fill:#83a8ff;fill-rule:nonzero;"/></g></svg>